<?xml version="1.0" encoding="UTF-8"?>
<svg version="1.1" xmlns="http://www.w3.org/2000/svg" width="166" height="166">
<path d="M0 0 C1.02609375 0.350625 2.0521875 0.70125 3.109375 1.0625 C11.2798162 4.11054024 18.10083368 8.78244866 25 14 C25.74121094 14.55429687 26.48242188 15.10859375 27.24609375 15.6796875 C42.3896501 27.92860028 51.68639225 47.11605445 55 66 C55.91314514 80.01331431 55.96584236 93.7359737 51 107 C50.649375 108.02609375 50.29875 109.0521875 49.9375 110.109375 C46.88945976 118.2798162 42.21755134 125.10083368 37 132 C36.16855469 133.11181641 36.16855469 133.11181641 35.3203125 134.24609375 C23.07139972 149.3896501 3.88394555 158.68639225 -15 162 C-29.01331431 162.91314514 -42.7359737 162.96584236 -56 158 C-57.02609375 157.649375 -58.0521875 157.29875 -59.109375 156.9375 C-67.2798162 153.88945976 -74.10083368 149.21755134 -81 144 C-82.11181641 143.16855469 -82.11181641 143.16855469 -83.24609375 142.3203125 C-98.3896501 130.07139972 -107.68639225 110.88394555 -111 92 C-111.91314514 77.98668569 -111.96584236 64.2640263 -107 51 C-106.649375 49.97390625 -106.29875 48.9478125 -105.9375 47.890625 C-102.88945976 39.7201838 -98.21755134 32.89916632 -93 26 C-92.44570312 25.25878906 -91.89140625 24.51757812 -91.3203125 23.75390625 C-70.40591974 -2.10294251 -30.72950896 -11.50464375 0 0 Z " fill="#DF283C" transform="translate(111,4)"/>
<path d="M0 0 C1.02609375 0.350625 2.0521875 0.70125 3.109375 1.0625 C11.2798162 4.11054024 18.10083368 8.78244866 25 14 C25.74121094 14.55429687 26.48242188 15.10859375 27.24609375 15.6796875 C42.3896501 27.92860028 51.68639225 47.11605445 55 66 C55.91314514 80.01331431 55.96584236 93.7359737 51 107 C50.649375 108.02609375 50.29875 109.0521875 49.9375 110.109375 C46.88945976 118.2798162 42.21755134 125.10083368 37 132 C36.16855469 133.11181641 36.16855469 133.11181641 35.3203125 134.24609375 C23.07139972 149.3896501 3.88394555 158.68639225 -15 162 C-29.01331431 162.91314514 -42.7359737 162.96584236 -56 158 C-57.02609375 157.649375 -58.0521875 157.29875 -59.109375 156.9375 C-67.2798162 153.88945976 -74.10083368 149.21755134 -81 144 C-82.11181641 143.16855469 -82.11181641 143.16855469 -83.24609375 142.3203125 C-98.3896501 130.07139972 -107.68639225 110.88394555 -111 92 C-111.91314514 77.98668569 -111.96584236 64.2640263 -107 51 C-106.649375 49.97390625 -106.29875 48.9478125 -105.9375 47.890625 C-102.88945976 39.7201838 -98.21755134 32.89916632 -93 26 C-92.44570312 25.25878906 -91.89140625 24.51757812 -91.3203125 23.75390625 C-70.40591974 -2.10294251 -30.72950896 -11.50464375 0 0 Z M-54 21 C-54.85335937 21.36222656 -55.70671875 21.72445313 -56.5859375 22.09765625 C-70.93994752 28.61216849 -81.94909236 40.42905459 -87.75 55.0625 C-93.15130742 71.33369446 -92.75092476 88.32144829 -85.64453125 103.98828125 C-78.46935704 117.89619265 -68.46517844 127.85198054 -54 134 C-53.18805176 134.35835938 -52.37610352 134.71671875 -51.53955078 135.0859375 C-39.95635916 139.41260623 -27.86419311 138.43554294 -15.6875 138.25 C-13.38608327 138.22990171 -11.08464957 138.21165684 -8.78320312 138.1953125 C-3.18803375 138.155016 2.40474295 138.07667653 8 138 C8 130.74 8 123.48 8 116 C15.26 116 22.52 116 30 116 C30.06925657 109.52579325 30.12887457 103.05289672 30.16479492 96.57861328 C30.1797854 94.38097757 30.20018466 92.18337129 30.22631836 89.98583984 C30.46754512 69.16465951 28.3799965 51.41044089 14 35 C8.37546226 29.96115793 1.90691296 26.23677513 -4.6875 22.625 C-5.29271484 22.29097168 -5.89792969 21.95694336 -6.52148438 21.61279297 C-20.36244127 14.32867075 -39.97153007 14.37665119 -54 21 Z " fill="#FDFDFD" transform="translate(111,4)"/>
<path d="M0 0 C2.56007774 1.88005709 4.7183673 3.76907025 7 6 C7 6.66 7 7.32 7 8 C7.66 8 8.32 8 9 8 C16.80843779 17.03547801 20.17644325 28.56025954 20.09765625 40.265625 C20.0962413 41.05902283 20.09482635 41.85242065 20.09336853 42.66986084 C20.08778415 45.19661272 20.07523454 47.72327504 20.0625 50.25 C20.05748298 51.96614455 20.05292043 53.68229049 20.04882812 55.3984375 C20.03781984 59.59899269 20.02056596 63.79948117 20 68 C16.37 68 12.74 68 9 68 C8.99589111 66.97229492 8.99178223 65.94458984 8.98754883 64.88574219 C8.9655214 61.01611434 8.91099498 57.1474697 8.84741211 53.27832031 C8.82443537 51.6143548 8.80988488 49.95024805 8.80444336 48.28613281 C8.75293852 35.11674133 7.49141765 23.69743955 -2.12890625 13.74609375 C-11.33401395 5.15594105 -20.20124096 2.38040653 -32.8515625 2.7109375 C-40.29320242 3.39416499 -46.00479222 5.65347436 -52 10 C-52.66 10 -53.32 10 -54 10 C-54 10.66 -54 11.32 -54 12 C-54.86625 12.639375 -55.7325 13.27875 -56.625 13.9375 C-62.03411737 18.22881877 -65.56154869 25.31265638 -67 32 C-68.1055951 44.33743628 -67.36163845 53.58233082 -60 64 C-54.13274638 70.83069564 -45.93680063 76.24830208 -37 78 C-34.31168621 78.15052409 -31.64337245 78.25605116 -28.953125 78.31640625 C-28.18192322 78.33718735 -27.41072144 78.35796844 -26.6161499 78.37937927 C-24.16085428 78.44458572 -21.70545479 78.50362484 -19.25 78.5625 C-17.58202065 78.60571274 -15.91405168 78.6493279 -14.24609375 78.69335938 C-10.16416804 78.80023736 -6.08213818 78.90158566 -2 79 C-2 82.63 -2 86.26 -2 90 C-6.76477752 90.07505102 -11.52919901 90.12901989 -16.29443359 90.16479492 C-17.91005458 90.17973355 -19.5256361 90.20009201 -21.14111328 90.22631836 C-37.91423051 90.49148543 -51.51897772 88.27510229 -64.4140625 76.62109375 C-75.71845816 65.06610804 -79.42916588 52.63183035 -79.43896484 36.82446289 C-79.09853186 24.34928309 -73.42564679 13.68455564 -64.8671875 4.78125 C-46.11232403 -12.7320023 -21.25672446 -13.44747051 0 0 Z " fill="#F8F4F6" transform="translate(110,41)"/>
<path d="M0 0 C5.61199971 4.45380089 10.05428032 10.1624934 11.02584839 17.44989014 C11.38370901 22.68378459 11.22663069 27.91293314 11.08203125 33.15234375 C11.05690154 34.74475641 11.03409666 36.33720754 11.01367188 37.9296875 C10.95908002 41.79653788 10.87307476 45.66150715 10.76953125 49.52734375 C6.2529875 49.62721629 1.73705136 49.69927805 -2.78027344 49.74707031 C-4.31261409 49.76702099 -5.84488027 49.79419191 -7.37695312 49.82910156 C-17.9763865 50.06433703 -28.63116587 49.96189677 -36.84765625 42.16796875 C-43.39971064 34.39434489 -45.2508559 27.15618018 -44.70703125 17.234375 C-44.09502376 12.47375938 -42.87597517 9.49560338 -40.23046875 5.52734375 C-39.57046875 5.52734375 -38.91046875 5.52734375 -38.23046875 5.52734375 C-38.04484375 4.97046875 -37.85921875 4.41359375 -37.66796875 3.83984375 C-34.91015652 -0.59663679 -30.69067417 -2.89408429 -25.91796875 -4.78515625 C-16.18996617 -6.59885165 -8.35817689 -5.51844604 0 0 Z " fill="#FDFCFD" transform="translate(97.23046875,59.47265625)"/>
<path d="M0 0 C0.94746094 -0.020625 1.89492187 -0.04125 2.87109375 -0.0625 C11.67774965 -0.11068964 19.19999989 1.8146428 27 5.9375 C27.83789062 6.37449219 28.67578125 6.81148437 29.5390625 7.26171875 C30.14492187 7.58785156 30.75078125 7.91398437 31.375 8.25 C27.65625 9.3671875 27.65625 9.3671875 25.125 8.3125 C24.5475 7.961875 23.97 7.61125 23.375 7.25 C22.715 8.24 22.055 9.23 21.375 10.25 C22.365 10.25 23.355 10.25 24.375 10.25 C24.375 11.24 24.375 12.23 24.375 13.25 C23.715 13.25 23.055 13.25 22.375 13.25 C22.375 13.91 22.375 14.57 22.375 15.25 C25.345 15.745 25.345 15.745 28.375 16.25 C28.87 17.735 28.87 17.735 29.375 19.25 C30.035 19.25 30.695 19.25 31.375 19.25 C31.045 19.91 30.715 20.57 30.375 21.25 C29.44558594 20.76789062 28.51617187 20.28578125 27.55859375 19.7890625 C26.31006245 19.15071567 25.06135505 18.51271322 23.8125 17.875 C23.20341797 17.55789062 22.59433594 17.24078125 21.96679688 16.9140625 C10.36057304 11.01883769 -2.93829779 10.36502079 -15.5 13.6875 C-30.15778858 18.91315914 -38.71798474 29.59088351 -45.20703125 43.04296875 C-49.48051354 52.70833778 -49.3739854 68.31273301 -45.625 78.25 C-38.86780922 91.71331966 -30.02663556 101.96244298 -15.625 107.25 C-15.625 107.58 -15.625 107.91 -15.625 108.25 C-20.40076339 107.7817879 -23.66976345 107.00668002 -27.625 104.25 C-26.14 106.725 -26.14 106.725 -24.625 109.25 C-25.285 109.25 -25.945 109.25 -26.625 109.25 C-25.965 110.57 -25.305 111.89 -24.625 113.25 C-23.635 112.92 -22.645 112.59 -21.625 112.25 C-21.295 113.24 -20.965 114.23 -20.625 115.25 C-19.635 115.25 -18.645 115.25 -17.625 115.25 C-14.625 116.25 -14.625 116.25 -12.625 118.25 C-7.23901304 119.5680515 -1.7100475 119.46973163 3.8046875 119.56640625 C5.290186 119.5975779 5.290186 119.5975779 6.80569458 119.62937927 C9.95372918 119.6945032 13.10184367 119.75358629 16.25 119.8125 C18.3906331 119.85572059 20.53125826 119.89933599 22.671875 119.94335938 C27.90616948 120.05088558 33.14052886 120.15023514 38.375 120.25 C38.375 113.32 38.375 106.39 38.375 99.25 C38.705 99.25 39.035 99.25 39.375 99.25 C39.375 106.51 39.375 113.77 39.375 121.25 C32.63398098 121.34237788 25.89520297 121.42185248 19.15405273 121.46972656 C16.86621615 121.48970626 14.57842974 121.51689951 12.29077148 121.55175781 C-12.05939134 121.91320969 -12.05939134 121.91320969 -22.625 117.25 C-23.53926758 116.86158936 -24.45353516 116.47317871 -25.39550781 116.07299805 C-39.49358549 109.81430598 -49.81758703 98.10999531 -55.62890625 83.93359375 C-55.95761719 83.04800781 -56.28632812 82.16242188 -56.625 81.25 C-56.94339844 80.43660156 -57.26179688 79.62320313 -57.58984375 78.78515625 C-62.42634759 64.32022079 -60.47457391 47.42074265 -54.4921875 33.640625 C-45.74851846 16.84814804 -32.15890428 7.28017872 -14.625 1.25 C-9.79965741 -0.16266194 -4.99206136 0.02651825 0 0 Z " fill="#CE155D" transform="translate(79.625,20.75)"/>
<path d="M0 0 C0 0.33 0 0.66 0 1 C-3.3 1.33 -6.6 1.66 -10 2 C-7.36 2.33 -4.72 2.66 -2 3 C-2.66 3.33 -3.32 3.66 -4 4 C-4.33 4.66 -4.66 5.32 -5 6 C-9.455 5.01 -9.455 5.01 -14 4 C-14 3.34 -14 2.68 -14 2 C-14.61875 2.639375 -15.2375 3.27875 -15.875 3.9375 C-18 6 -18 6 -20 7 C-20 7.66 -20 8.32 -20 9 C-19.236875 9.12375 -18.47375 9.2475 -17.6875 9.375 C-15 10 -15 10 -12 12 C-12.58007812 12.15855469 -13.16015625 12.31710938 -13.7578125 12.48046875 C-19.27551033 14.12849401 -22.86859976 15.97188476 -27 20 C-27.33 20.66 -27.66 21.32 -28 22 C-28.66 22 -29.32 22 -30 22 C-30.309375 23.134375 -30.61875 24.26875 -30.9375 25.4375 C-32 29 -32 29 -33 30 C-33.86553593 39.00595615 -33.91548072 46.85376553 -28.91015625 54.72265625 C-24.33028493 60.18291183 -18.77270377 63.06260885 -12 65 C-9.3681086 65.22616464 -6.8280978 65.37004266 -4.1953125 65.4140625 C-3.1093428 65.44311172 -3.1093428 65.44311172 -2.00143433 65.4727478 C0.29059398 65.53209886 2.58267374 65.57874878 4.875 65.625 C6.43752081 65.66322087 8.00002148 65.70227494 9.5625 65.7421875 C13.37488981 65.83931845 17.18708846 65.91923599 21 66 C21 56.1 21 46.2 21 36 C21.33 36 21.66 36 22 36 C22 46.23 22 56.46 22 67 C12.76 67.66 3.52 68.32 -6 69 C-5.01 70.485 -5.01 70.485 -4 72 C-4.99 72.33 -5.98 72.66 -7 73 C-3.37 73.33 0.26 73.66 4 74 C4 74.66 4 75.32 4 76 C9.61 76 15.22 76 21 76 C21 76.33 21 76.66 21 77 C16.21693814 77.09992737 11.43450243 77.17195954 6.65063477 77.21972656 C5.02813107 77.23966813 3.40569758 77.26683174 1.78344727 77.30175781 C-13.63876756 77.6251345 -24.18608573 75.27739048 -35.71484375 64.37890625 C-43.36449168 56.26210425 -45.70291129 47.45607762 -45.5234375 36.56762695 C-45.08819198 27.01942831 -41.76600785 18.90132801 -35 12 C-32.8125 10.78125 -32.8125 10.78125 -31 10 C-31 9.34 -31 8.68 -31 8 C-21.95443001 0.34411255 -11.36636042 -0.48102152 0 0 Z " fill="#D31B57" transform="translate(87,43)"/>
<path d="M0 0 C1.0209375 0.433125 1.0209375 0.433125 2.0625 0.875 C4.98193722 2.08714782 4.98193722 2.08714782 8.125 2.625 C19.4028708 5.88577569 26.34520869 15.37433914 32 25 C37.71523385 35.48025768 39.32047605 45.41807332 39.1953125 57.2578125 C39.1924826 58.28687714 39.18965271 59.31594177 39.18673706 60.37619019 C39.17564479 63.62591756 39.15056115 66.87535754 39.125 70.125 C39.11495603 72.34374599 39.10583267 74.56249634 39.09765625 76.78125 C39.07745279 82.18769671 39.03828342 87.59353103 39 93 C31.74 93 24.48 93 17 93 C17 92.67 17 92.34 17 92 C23.93 92 30.86 92 38 92 C37.67 90.68 37.34 89.36 37 88 C35.01432292 88.06510417 33.02864583 88.13020833 31.04296875 88.1953125 C29 88 29 88 26 86 C26 85.01 26 84.02 26 83 C23.03 83 20.06 83 17 83 C17 82.67 17 82.34 17 82 C20.63 82 24.26 82 28 82 C27.93055081 77.05567828 27.84231661 72.11215672 27.73754883 67.16845703 C27.70453704 65.49081387 27.67643324 63.81306598 27.65356445 62.13525391 C27.49403693 50.73752124 26.88698955 40.90898968 21.4375 30.625 C21.02371094 29.83351563 20.60992187 29.04203125 20.18359375 28.2265625 C19.79300781 27.49179687 19.40242188 26.75703125 19 26 C18.32970029 24.66848938 17.6617827 23.33576416 17 22 C16.34 22 15.68 22 15 22 C9.45945946 17.13513514 9.45945946 17.13513514 9 13 C8.34 13 7.68 13 7 13 C6.54625 12.525625 6.0925 12.05125 5.625 11.5625 C3.77022513 9.77906263 2.49864408 9.4308007 0 9 C0 8.34 0 7.68 0 7 C0.66 7 1.32 7 2 7 C2 6.01 2 5.02 2 4 C1.01 4 0.02 4 -1 4 C-0.67 2.68 -0.34 1.36 0 0 Z " fill="#E03938" transform="translate(102,27)"/>
<path d="M0 0 C0.94746094 -0.020625 1.89492187 -0.04125 2.87109375 -0.0625 C11.67774965 -0.11068964 19.19999989 1.8146428 27 5.9375 C27.83789062 6.37449219 28.67578125 6.81148437 29.5390625 7.26171875 C30.14492187 7.58785156 30.75078125 7.91398437 31.375 8.25 C27.65625 9.3671875 27.65625 9.3671875 25.125 8.3125 C24.5475 7.961875 23.97 7.61125 23.375 7.25 C22.715 8.24 22.055 9.23 21.375 10.25 C22.365 10.25 23.355 10.25 24.375 10.25 C24.375 11.24 24.375 12.23 24.375 13.25 C23.715 13.25 23.055 13.25 22.375 13.25 C22.375 13.91 22.375 14.57 22.375 15.25 C25.345 15.745 25.345 15.745 28.375 16.25 C28.87 17.735 28.87 17.735 29.375 19.25 C30.035 19.25 30.695 19.25 31.375 19.25 C31.045 19.91 30.715 20.57 30.375 21.25 C29.44558594 20.76789062 28.51617187 20.28578125 27.55859375 19.7890625 C26.31006245 19.15071567 25.06135505 18.51271322 23.8125 17.875 C23.20341797 17.55789062 22.59433594 17.24078125 21.96679688 16.9140625 C10.36057304 11.01883769 -2.93829779 10.36502079 -15.5 13.6875 C-25.42032207 17.22420142 -33.22578406 24.045877 -39.625 32.25 C-40.61208322 33.26275205 -41.60893303 34.26632937 -42.625 35.25 C-43.285 34.59 -43.945 33.93 -44.625 33.25 C-43.635 31.6 -42.645 29.95 -41.625 28.25 C-42.285 28.25 -42.945 28.25 -43.625 28.25 C-44.285 29.57 -44.945 30.89 -45.625 32.25 C-46.07875 31.610625 -46.5325 30.97125 -47 30.3125 C-48.46421726 28.15297594 -48.46421726 28.15297594 -50.625 27.25 C-38.15188207 10.06048435 -21.46755372 0.11403747 0 0 Z " fill="#D21D5C" transform="translate(79.625,20.75)"/>
<path d="M0 0 C15.1036085 -0.49489979 23.27963185 1.04934426 34.7265625 11.58984375 C43.23818701 20.51613715 44.62332538 31.08886661 44.43945312 42.8515625 C44.39769912 44.48438951 44.3553747 46.11720203 44.3125 47.75 C44.28736034 49.42965393 44.26455727 51.10934452 44.24414062 52.7890625 C44.18965132 56.86029843 44.10370311 60.92973257 44 65 C43.67 65 43.34 65 43 65 C42.970271 63.47862427 42.970271 63.47862427 42.93994141 61.92651367 C42.86386977 58.16356576 42.77515509 54.40100377 42.68261719 50.63842773 C42.64433382 49.00992451 42.60947976 47.38133691 42.578125 45.75268555 C42.53245998 43.41163986 42.47446923 41.0711747 42.4140625 38.73046875 C42.40251129 38.00224411 42.39096008 37.27401947 42.37905884 36.52372742 C42.27121488 32.83038626 42.10115724 31.15173586 40 28 C36.88214887 28.64644661 36.88214887 28.64644661 36 31 C35.505 30.01 35.505 30.01 35 29 C34.67 29.66 34.34 30.32 34 31 C33.34 31 32.68 31 32 31 C31.731875 30.35933594 31.46375 29.71867187 31.1875 29.05859375 C27.60020046 21.14057405 23.12775211 15.31378475 14.8125 12.125 C9.95991769 10.73251986 5.04031406 10.5088531 0.015625 10.30859375 C-3.00853031 9.99912708 -5.25299655 9.26667382 -8 8 C-7.67 6.02 -7.34 4.04 -7 2 C-5.35 1.67 -3.7 1.34 -2 1 C-2 1.66 -2 2.32 -2 3 C-0.52168779 3.19412181 0.95769316 3.38012131 2.4375 3.5625 C3.26121094 3.66691406 4.08492187 3.77132812 4.93359375 3.87890625 C5.61550781 3.91886719 6.29742187 3.95882812 7 4 C7.33 3.67 7.66 3.34 8 3 C5.36 2.34 2.72 1.68 0 1 C0 0.67 0 0.34 0 0 Z " fill="#DA2A49" transform="translate(75,44)"/>
<path d="M0 0 C2.1875 1.4375 2.1875 1.4375 4 3 C4.33 2.34 4.66 1.68 5 1 C5.66 1 6.32 1 7 1 C6.4740625 2.11375 6.4740625 2.11375 5.9375 3.25 C4.73888956 5.83940588 4.73888956 5.83940588 5.62109375 7.7734375 C6.20244943 11.18965127 4.62605384 13.29680203 3.125 16.375 C-1.28074762 26.15345801 -1.02025056 36.44511695 -1 47 C-0.34 47 0.32 47 1 47 C0.67 50.63 0.34 54.26 0 58 C-1.485 58.495 -1.485 58.495 -3 59 C-3.66 57.35 -4.32 55.7 -5 54 C-5.99 54 -6.98 54 -8 54 C-13.88300059 38.41705201 -11.93556413 21.53156246 -5.94921875 6.33203125 C-4.9375 4.125 -4.9375 4.125 -3 1 C-2.01 0.67 -1.02 0.34 0 0 Z " fill="#CA0D59" transform="translate(31,48)"/>
<path d="M0 0 C0.66 0.33 1.32 0.66 2 1 C2.08082094 2.95766281 2.13910778 4.91626728 2.1875 6.875 C2.23970703 8.51082031 2.23970703 8.51082031 2.29296875 10.1796875 C2.19628906 11.11039063 2.09960938 12.04109375 2 13 C-1.6441774 15.4294516 -3.71241272 15.16179575 -8 15 C-8 14.67 -8 14.34 -8 14 C-10.97 13.67 -13.94 13.34 -17 13 C-17 13.99 -17 14.98 -17 16 C-11.72 16.33 -6.44 16.66 -1 17 C-1 17.33 -1 17.66 -1 18 C-3.64 18 -6.28 18 -9 18 C-9 18.66 -9 19.32 -9 20 C-6.36 20 -3.72 20 -1 20 C-1 20.33 -1 20.66 -1 21 C-5.69562266 21.04977421 -10.39108863 21.08589521 -15.08691406 21.10986328 C-16.68134235 21.11986475 -18.27575257 21.13347031 -19.87011719 21.15087891 C-22.17387376 21.17538695 -24.47738595 21.18654176 -26.78125 21.1953125 C-27.48366821 21.20563507 -28.18608643 21.21595764 -28.90979004 21.22659302 C-34.40712165 21.22781407 -40.59421407 20.95470107 -45 17.375 C-45.33 16.92125 -45.66 16.4675 -46 16 C-46.33 16.66 -46.66 17.32 -47 18 C-47.99 17.34 -48.98 16.68 -50 16 C-50 15.34 -50 14.68 -50 14 C-50.598125 14.20625 -51.19625 14.4125 -51.8125 14.625 C-54 15 -54 15 -57 13 C-56.34 12.67 -55.68 12.34 -55 12 C-55.165 11.236875 -55.33 10.47375 -55.5 9.6875 C-56 7 -56 7 -56 4 C-54.700625 4.928125 -54.700625 4.928125 -53.375 5.875 C-43.03970818 11.70910818 -28.2073999 10.39545615 -16.625 10.625 C-15.00258609 10.66330429 -13.3801898 10.70236254 -11.7578125 10.7421875 C-7.83868964 10.83678614 -3.91947282 10.92129059 0 11 C0 7.37 0 3.74 0 0 Z " fill="#D51F46" transform="translate(108,120)"/>
<path d="M0 0 C0.94746094 -0.020625 1.89492187 -0.04125 2.87109375 -0.0625 C11.67774965 -0.11068964 19.19999989 1.8146428 27 5.9375 C27.83789062 6.37449219 28.67578125 6.81148437 29.5390625 7.26171875 C30.14492187 7.58785156 30.75078125 7.91398437 31.375 8.25 C27.65625 9.3671875 27.65625 9.3671875 25.125 8.3125 C24.5475 7.961875 23.97 7.61125 23.375 7.25 C22.715 8.24 22.055 9.23 21.375 10.25 C22.365 10.25 23.355 10.25 24.375 10.25 C24.375 11.24 24.375 12.23 24.375 13.25 C23.715 13.25 23.055 13.25 22.375 13.25 C22.375 13.91 22.375 14.57 22.375 15.25 C24.355 15.58 26.335 15.91 28.375 16.25 C28.87 17.735 28.87 17.735 29.375 19.25 C30.035 19.25 30.695 19.25 31.375 19.25 C31.045 19.91 30.715 20.57 30.375 21.25 C29.44558594 20.76789062 28.51617187 20.28578125 27.55859375 19.7890625 C26.31006245 19.15071567 25.06135505 18.51271322 23.8125 17.875 C23.20341797 17.55789062 22.59433594 17.24078125 21.96679688 16.9140625 C14.73305622 13.23978153 7.98307882 11.9361908 -0.0625 11.625 C-1.30290039 11.56699219 -1.30290039 11.56699219 -2.56835938 11.5078125 C-4.58691073 11.41446908 -6.60592331 11.33119039 -8.625 11.25 C-8.625 10.92 -8.625 10.59 -8.625 10.25 C-5.325 10.25 -2.025 10.25 1.375 10.25 C1.375 9.59 1.375 8.93 1.375 8.25 C0.715 7.92 0.055 7.59 -0.625 7.25 C0.695 6.92 2.015 6.59 3.375 6.25 C3.375 5.59 3.375 4.93 3.375 4.25 C-1.905 4.25 -7.185 4.25 -12.625 4.25 C-12.625 3.59 -12.625 2.93 -12.625 2.25 C-13.285 1.92 -13.945 1.59 -14.625 1.25 C-9.78597119 -0.13974123 -5.00041869 0.02656265 0 0 Z " fill="#D62843" transform="translate(79.625,20.75)"/>
<path d="M0 0 C0.33 0 0.66 0 1 0 C1 10.23 1 20.46 1 31 C-8.24 31.66 -17.48 32.32 -27 33 C-26.34 33.99 -25.68 34.98 -25 36 C-26.485 36.495 -26.485 36.495 -28 37 C-24.37 37.33 -20.74 37.66 -17 38 C-17 38.66 -17 39.32 -17 40 C-11.39 40 -5.78 40 0 40 C0 40.33 0 40.66 0 41 C-4.81970922 41.07473903 -9.63907335 41.12887722 -14.45922852 41.16479492 C-16.09535609 41.17978456 -17.73144415 41.20018332 -19.36743164 41.22631836 C-36.10216541 41.48676127 -36.10216541 41.48676127 -44 38 C-44.33 36.35 -44.66 34.7 -45 33 C-43.515 32.505 -43.515 32.505 -42 32 C-41.26676204 29.98491642 -41.26676204 29.98491642 -41 28 C-39.845 28.15847412 -38.69 28.31694824 -37.5 28.48022461 C-33.33758647 28.99909753 -29.19152618 29.2134727 -25 29.31640625 C-24.2788501 29.33718735 -23.5577002 29.35796844 -22.81469727 29.37937927 C-20.54321493 29.44401934 -18.27163138 29.50335551 -16 29.5625 C-14.44660471 29.6057669 -12.89321913 29.64938358 -11.33984375 29.69335938 C-7.55999728 29.80026005 -3.78005913 29.89996465 0 30 C0 20.1 0 10.2 0 0 Z " fill="#CC2F53" transform="translate(108,79)"/>
<path d="M0 0 C3.43259753 2.23118839 6.71147733 4.54079417 9.9375 7.0625 C13.47122882 9.75194679 16.85047722 11.44392896 21 13 C21 13.33 21 13.66 21 14 C16.22423661 13.5317879 12.95523655 12.75668002 9 10 C9.99 11.65 10.98 13.3 12 15 C11.34 15 10.68 15 10 15 C10.66 16.32 11.32 17.64 12 19 C12.99 18.67 13.98 18.34 15 18 C15.33 18.99 15.66 19.98 16 21 C16.99 21 17.98 21 19 21 C22 22 22 22 24 24 C29.38598696 25.3180515 34.9149525 25.21973163 40.4296875 25.31640625 C41.915186 25.3475779 41.915186 25.3475779 43.43069458 25.37937927 C46.57872918 25.4445032 49.72684367 25.50358629 52.875 25.5625 C55.0156331 25.60572059 57.15625826 25.64933599 59.296875 25.69335938 C64.53116948 25.80088558 69.76552886 25.90023514 75 26 C75 19.07 75 12.14 75 5 C75.33 5 75.66 5 76 5 C76 12.26 76 19.52 76 27 C69.25898098 27.09237788 62.52020297 27.17185248 55.77905273 27.21972656 C53.49121615 27.23970626 51.20342974 27.26689951 48.91577148 27.30175781 C24.49584101 27.66424532 24.49584101 27.66424532 14 23 C12.56563599 22.36976929 12.56563599 22.36976929 11.10229492 21.72680664 C6.11771548 19.44174855 1.93194343 16.82847123 -2 13 C-2 12.34 -2 11.68 -2 11 C-1.34 11 -0.68 11 0 11 C0 10.34 0 9.68 0 9 C-0.66 8.67 -1.32 8.34 -2 8 C-1.34 8 -0.68 8 0 8 C0 5.36 0 2.72 0 0 Z " fill="#CD3262" transform="translate(43,115)"/>
<path d="M0 0 C0.99 0.33 1.98 0.66 3 1 C2.67 1.99 2.34 2.98 2 4 C1.67 4 1.34 4 1 4 C0.67 5.65 0.34 7.3 0 9 C-0.66 9 -1.32 9 -2 9 C-2 9.99 -2 10.98 -2 12 C-1.67 12 -1.34 12 -1 12 C-1.33 20.91 -1.66 29.82 -2 39 C-1.34 39 -0.68 39 0 39 C-0.33 42.63 -0.66 46.26 -1 50 C-2.485 50.495 -2.485 50.495 -4 51 C-4.66 49.35 -5.32 47.7 -6 46 C-6.66 46 -7.32 46 -8 46 C-8 44.68 -8 43.36 -8 42 C-7.34 42 -6.68 42 -6 42 C-6.66 39.03 -7.32 36.06 -8 33 C-8.33 33 -8.66 33 -9 33 C-9.19384179 30.18780295 -9.38036603 27.37545804 -9.5625 24.5625 C-9.61857422 23.76005859 -9.67464844 22.95761719 -9.73242188 22.13085938 C-9.8616295 20.08937889 -9.9351273 18.04453631 -10 16 C-9.67 15.67 -9.34 15.34 -9 15 C-8.63371323 13.00577205 -8.29868656 11.00546689 -8 9 C-7.34 9 -6.68 9 -6 9 C-5.67 7.02 -5.34 5.04 -5 3 C-4.67 3.66 -4.34 4.32 -4 5 C-3.34 5 -2.68 5 -2 5 C-1.34 3.35 -0.68 1.7 0 0 Z " fill="#D40A5E" transform="translate(32,56)"/>
<path d="M0 0 C0 0.66 0 1.32 0 2 C5.28 2 10.56 2 16 2 C16 2.66 16 3.32 16 4 C16.66 4.33 17.32 4.66 18 5 C16.68 5.33 15.36 5.66 14 6 C14 6.66 14 7.32 14 8 C10.7 8 7.4 8 4 8 C4 8.66 4 9.32 4 10 C1.87790224 10.69640673 -0.24778527 11.38188357 -2.375 12.0625 C-3.55835938 12.44535156 -4.74171875 12.82820313 -5.9609375 13.22265625 C-9 14 -9 14 -11 13 C-10.67 12.67 -10.34 12.34 -10 12 C-12.31 12 -14.62 12 -17 12 C-17 11.01 -17 10.02 -17 9 C-15.35 8.67 -13.7 8.34 -12 8 C-12 7.01 -12 6.02 -12 5 C-11.01 4.67 -10.02 4.34 -9 4 C-8.67 3.01 -8.34 2.02 -8 1 C-5.07175348 0.02391783 -3.04386724 -0.08226668 0 0 Z " fill="#D41B4E" transform="translate(67,23)"/>
<path d="M0 0 C0.66 0 1.32 0 2 0 C2.33 1.32 2.66 2.64 3 4 C3.66 3.67 4.32 3.34 5 3 C5.06058594 3.68707031 5.12117187 4.37414062 5.18359375 5.08203125 C5.26738281 5.98308594 5.35117188 6.88414063 5.4375 7.8125 C5.51871094 8.70582031 5.59992188 9.59914063 5.68359375 10.51953125 C5.93489767 13.12743559 5.93489767 13.12743559 7 16 C7.09669531 18.53943788 7.13999466 21.05055746 7.1328125 23.58984375 C7.13376923 24.33077774 7.13472595 25.07171173 7.13571167 25.83509827 C7.13639166 27.4010527 7.13454996 28.96700998 7.13037109 30.53295898 C7.12502785 32.92503222 7.13031824 35.31691704 7.13671875 37.70898438 C7.13605779 39.23177125 7.13477625 40.754558 7.1328125 42.27734375 C7.13483673 42.99099594 7.13686096 43.70464813 7.13894653 44.43992615 C7.12330001 47.76921109 7.03158524 50.81663243 6 54 C4.02 54.495 4.02 54.495 2 55 C1.9845388 54.14341797 1.9845388 54.14341797 1.96876526 53.26953125 C1.86016614 47.29921242 1.74561535 41.32902837 1.62768555 35.35888672 C1.58450704 33.13398065 1.54282072 30.90904508 1.50268555 28.68408203 C1.44456697 25.47679779 1.38099454 22.2696597 1.31640625 19.0625 C1.29969376 18.07572266 1.28298126 17.08894531 1.26576233 16.07226562 C1.15056216 10.64084399 0.78048905 5.37731956 0 0 Z " fill="#F7F4EF" transform="translate(139,65)"/>
<path d="M0 0 C1.03125 0.61875 2.0625 1.2375 3.125 1.875 C8.20933143 4.49032156 13.38968348 4.82995148 19.0234375 5.3125 C22 6 22 6 23.4140625 7.8125 C24 10 24 10 24 14 C29.28 14.33 34.56 14.66 40 15 C40 15.33 40 15.66 40 16 C36.10441912 16.11643304 32.20928742 16.18732909 28.3125 16.25 C27.20970703 16.28351563 26.10691406 16.31703125 24.97070312 16.3515625 C16.7317694 16.45112665 16.7317694 16.45112665 12.73046875 13.984375 C12.15941406 13.32953125 11.58835937 12.6746875 11 12 C10.67 12.66 10.34 13.32 10 14 C9.01 13.34 8.02 12.68 7 12 C7 11.34 7 10.68 7 10 C6.401875 10.20625 5.80375 10.4125 5.1875 10.625 C3 11 3 11 0 9 C0.66 8.67 1.32 8.34 2 8 C1.47731534 5.23723823 0.89130413 2.6739124 0 0 Z " fill="#D81A51" transform="translate(51,124)"/>
<path d="M0 0 C5.08498521 3.69817106 7.68030349 7.1691265 10 13 C10.51554443 14.29006958 10.51554443 14.29006958 11.04150391 15.60620117 C12.17346992 19.61421432 12.25158908 23.33671492 12.1953125 27.4609375 C12.1924826 28.25150543 12.18965271 29.04207336 12.18673706 29.8565979 C12.17560955 32.36289084 12.15051926 34.86881645 12.125 37.375 C12.11496058 39.08202606 12.10583641 40.78905777 12.09765625 42.49609375 C12.07569463 46.6642024 12.04121671 50.83203908 12 55 C11.67 55 11.34 55 11 55 C10.98018066 53.98574951 10.96036133 52.97149902 10.93994141 51.92651367 C10.86386977 48.16356576 10.77515509 44.40100377 10.68261719 40.63842773 C10.64433382 39.00992451 10.60947976 37.38133691 10.578125 35.75268555 C10.53245998 33.41163986 10.47446923 31.0711747 10.4140625 28.73046875 C10.40251129 28.00224411 10.39096008 27.27401947 10.37905884 26.52372742 C10.27121488 22.83038626 10.10115724 21.15173586 8 18 C4.88214887 18.64644661 4.88214887 18.64644661 4 21 C3.67 20.34 3.34 19.68 3 19 C2.67 19.66 2.34 20.32 2 21 C1.34 21 0.68 21 0 21 C-0.31453125 20.33613281 -0.6290625 19.67226562 -0.953125 18.98828125 C-3.25301049 14.24303558 -5.44142868 9.95396814 -9 6 C-7.68 6 -6.36 6 -5 6 C-4.67 6.99 -4.34 7.98 -4 9 C-3.34 9.33 -2.68 9.66 -2 10 C-1.67 10.99 -1.34 11.98 -1 13 C-0.34 12.01 0.32 11.02 1 10 C1.99 9.34 2.98 8.68 4 8 C3.01 7.67 2.02 7.34 1 7 C-0.25 4.5625 -0.25 4.5625 -1 2 C-0.67 1.34 -0.34 0.68 0 0 Z " fill="#DB424F" transform="translate(107,54)"/>
<path d="M0 0 C0.33 0 0.66 0 1 0 C1 13.86 1 27.72 1 42 C-4.61 42 -10.22 42 -16 42 C-16 41.01 -16 40.02 -16 39 C-17.32 38.67 -18.64 38.34 -20 38 C-18.68 38 -17.36 38 -16 38 C-16 36.68 -16 35.36 -16 34 C-18.64 34 -21.28 34 -24 34 C-20.8250906 32.0921416 -18.89414789 31.8390959 -15.25 32.375 C-14.45078125 32.48585937 -13.6515625 32.59671875 -12.828125 32.7109375 C-11.92320313 32.85402344 -11.92320313 32.85402344 -11 33 C-10.67 33.99 -10.34 34.98 -10 36 C-6.7 36.66 -3.4 37.32 0 38 C0 25.46 0 12.92 0 0 Z " fill="#E52F30" transform="translate(139,77)"/>
<path d="M0 0 C7.92 0 15.84 0 24 0 C24 0.33 24 0.66 24 1 C18.06 1.33 12.12 1.66 6 2 C6.99 3.485 6.99 3.485 8 5 C7.01 5.33 6.02 5.66 5 6 C8.63 6.33 12.26 6.66 16 7 C16 7.66 16 8.32 16 9 C21.61 9 27.22 9 33 9 C33 9.33 33 9.66 33 10 C28.10710835 10.1238948 23.21513573 10.21447509 18.32104492 10.2746582 C16.65747161 10.29975347 14.99400804 10.33383796 13.33081055 10.37719727 C10.93510847 10.4380746 8.54086749 10.46625769 6.14453125 10.48828125 C5.4047554 10.51408768 4.66497955 10.5398941 3.90278625 10.56648254 C-0.21549188 10.56870328 -1.80704402 10.16227089 -5.0090332 7.46948242 C-5.66605225 6.65455322 -6.32307129 5.83962402 -7 5 C-3.535 4.505 -3.535 4.505 0 4 C-0.66 3.34 -1.32 2.68 -2 2 C-1.34 2 -0.68 2 0 2 C0 1.34 0 0.68 0 0 Z " fill="#D72951" transform="translate(75,110)"/>
<path d="M0 0 C0.33 0 0.66 0 1 0 C1 11.88 1 23.76 1 36 C-2.63 36 -6.26 36 -10 36 C-10 25.44 -10 14.88 -10 4 C-9.67 4 -9.34 4 -9 4 C-9 14.23 -9 24.46 -9 35 C-8.01 35 -7.02 35 -6 35 C-6.495 33.515 -6.495 33.515 -7 32 C-7.01592966 29.93326094 -6.96615799 27.86573917 -6.87890625 25.80078125 C-6.83056641 24.59228516 -6.78222656 23.38378906 -6.73242188 22.13867188 C-6.67634766 20.87603516 -6.62027344 19.61339844 -6.5625 18.3125 C-6.51029297 17.03826172 -6.45808594 15.76402344 -6.40429688 14.45117188 C-6.27449555 11.30053961 -6.1395244 8.15021423 -6 5 C-5.67 5 -5.34 5 -5 5 C-4.80347668 9.43714898 -4.61932078 13.87472615 -4.4375 18.3125 C-4.38142578 19.57513672 -4.32535156 20.83777344 -4.26757812 22.13867188 C-4.21923828 23.34716797 -4.17089844 24.55566406 -4.12109375 25.80078125 C-4.0739624 26.91622314 -4.02683105 28.03166504 -3.97827148 29.1809082 C-4 32 -4 32 -5 35 C-3.35 35 -1.7 35 0 35 C0 23.45 0 11.9 0 0 Z " fill="#FADEDD" transform="translate(129,73)"/>
<path d="M0 0 C1.4835001 0.42257276 2.96176424 0.86356322 4.4375 1.3125 C5.67306641 1.67794922 5.67306641 1.67794922 6.93359375 2.05078125 C7.95646484 2.52064453 7.95646484 2.52064453 9 3 C9.33 3.99 9.66 4.98 10 6 C12.01508358 6.73323796 12.01508358 6.73323796 14 7 C14 7.66 14 8.32 14 9 C13.34 9 12.68 9 12 9 C12.33 10.32 12.66 11.64 13 13 C14.65 12.67 16.3 12.34 18 12 C17.67 12.99 17.34 13.98 17 15 C16.34 15 15.68 15 15 15 C15 15.66 15 16.32 15 17 C15.66 17 16.32 17 17 17 C16.67 17.99 16.34 18.98 16 20 C16 19.34 16 18.68 16 18 C15.01 17.67 14.02 17.34 13 17 C12.67 16.34 12.34 15.68 12 15 C11.01 15 10.02 15 9 15 C9 14.34 9 13.68 9 13 C8.34 13 7.68 13 7 13 C6.54625 12.525625 6.0925 12.05125 5.625 11.5625 C3.77022513 9.77906263 2.49864408 9.4308007 0 9 C0 8.34 0 7.68 0 7 C0.66 7 1.32 7 2 7 C2 6.01 2 5.02 2 4 C1.01 4 0.02 4 -1 4 C-0.67 2.68 -0.34 1.36 0 0 Z " fill="#E32C3B" transform="translate(102,27)"/>
<path d="M0 0 C2.99705171 1.32698834 4.92986305 2.70226707 7.0625 5.1875 C7.54847656 5.73792969 8.03445312 6.28835937 8.53515625 6.85546875 C12.37654214 12.4792577 13.44042113 17.38283181 13.29296875 24.12109375 C13.28872391 24.86585464 13.28447906 25.61061554 13.28010559 26.37794495 C13.26345724 28.73151473 13.22583375 31.08419379 13.1875 33.4375 C13.17243515 35.04360733 13.15874991 36.64972823 13.14648438 38.25585938 C13.11359952 42.17091047 13.06191626 46.08530479 13 50 C8.35524041 50.04944066 3.71063404 50.08573863 -0.93432617 50.10986328 C-2.51443144 50.11992041 -4.0945181 50.13356785 -5.67456055 50.15087891 C-7.9458475 50.17514022 -10.21688836 50.18648582 -12.48828125 50.1953125 C-13.19463211 50.20563507 -13.90098297 50.21595764 -14.6287384 50.22659302 C-18.32197792 50.22743775 -19.83919216 50.10720523 -23 48 C-11.45 48.33 0.1 48.66 12 49 C11.855625 43.8025 11.71125 38.605 11.5625 33.25 C11.51939697 31.61579102 11.47629395 29.98158203 11.43188477 28.29785156 C11.3747229 26.36377441 11.3747229 26.36377441 11.31640625 24.390625 C11.29993042 23.72015137 11.28345459 23.04967773 11.26647949 22.35888672 C11.16556048 19.11255776 10.97132647 16.11101005 10 13 C9.34 13 8.68 13 8 13 C6.81640625 11.3203125 6.81640625 11.3203125 5.5625 9.125 C3.82669206 6.08869645 3.01345998 5.00897332 0 3 C0 2.01 0 1.02 0 0 Z " fill="#F6DEDF" transform="translate(95,59)"/>
<path d="M0 0 C1.44632813 -0.01836914 1.44632813 -0.01836914 2.921875 -0.03710938 C8.72401767 -0.04893439 13.68837295 0.52032981 19.25 2.1875 C19.25 2.5175 19.25 2.8475 19.25 3.1875 C8.562837 3.98335256 -2.03399677 4.31575004 -12.75 4.1875 C-12.75 3.5275 -12.75 2.8675 -12.75 2.1875 C-13.41 1.8575 -14.07 1.5275 -14.75 1.1875 C-9.87468152 -0.2226289 -5.03802523 0.00331449 0 0 Z " fill="#D43357" transform="translate(79.75,20.8125)"/>
<path d="M0 0 C1.625 1.625 1.625 1.625 3 4 C2.11594545 8.15505637 0.29480407 11.45348462 -2 15 C-3.9375 14.3125 -3.9375 14.3125 -6 13 C-6.75 10.375 -6.75 10.375 -7 8 C-7.66 8 -8.32 8 -9 8 C-9 7.34 -9 6.68 -9 6 C-8.34 6 -7.68 6 -7 6 C-6.67 5.34 -6.34 4.68 -6 4 C-6 4.66 -6 5.32 -6 6 C-5.34 6 -4.68 6 -4 6 C-4.33 4.68 -4.66 3.36 -5 2 C-3.35 1.34 -1.7 0.68 0 0 Z " fill="#D71452" transform="translate(57,55)"/>
<path d="M0 0 C1.33897583 0.95043374 2.67105427 1.91059147 4 2.875 C4.7425 3.40867188 5.485 3.94234375 6.25 4.4921875 C7.11625 5.23855469 7.11625 5.23855469 8 6 C8 6.66 8 7.32 8 8 C8.66 8 9.32 8 10 8 C9.67 8.66 9.34 9.32 9 10 C6.5625 9.625 6.5625 9.625 4 9 C3.67 8.34 3.34 7.68 3 7 C2.01 9.31 1.02 11.62 0 14 C-1.29315061 13.04367001 -2.58446853 12.08486149 -3.875 11.125 C-4.59429687 10.59132813 -5.31359375 10.05765625 -6.0546875 9.5078125 C-8 8 -8 8 -10 6 C-2.375 5 -2.375 5 1 5 C0.67 3.35 0.34 1.7 0 0 Z " fill="#F4EAEA" transform="translate(109,41)"/>
<path d="M0 0 C5.61 0 11.22 0 17 0 C17 0.66 17 1.32 17 2 C17.66 2.33 18.32 2.66 19 3 C17.68 3.33 16.36 3.66 15 4 C15 4.66 15 5.32 15 6 C11.7 6 8.4 6 5 6 C4.67 6.66 4.34 7.32 4 8 C3.01 7.34 2.02 6.68 1 6 C0.67 4.02 0.34 2.04 0 0 Z " fill="#DD204B" transform="translate(66,25)"/>
<path d="M0 0 C0.33 0 0.66 0 1 0 C1.04898437 1.03898437 1.09796875 2.07796875 1.1484375 3.1484375 C1.85643272 16.98093566 3.90729641 26.90068211 11 39 C9.35 39 7.7 39 6 39 C6 38.34 6 37.68 6 37 C5.01 36.67 4.02 36.34 3 36 C3.33 34.35 3.66 32.7 4 31 C3.01 30.34 2.02 29.68 1 29 C1.33 26.69 1.66 24.38 2 22 C1.34 22 0.68 22 0 22 C0 14.74 0 7.48 0 0 Z " fill="#C92969" transform="translate(30,73)"/>
<path d="M0 0 C0 0.66 0 1.32 0 2 C5.28 2.33 10.56 2.66 16 3 C15.67 3.66 15.34 4.32 15 5 C9.72 5 4.44 5 -1 5 C-1 5.66 -1 6.32 -1 7 C-0.01 6.67 0.98 6.34 2 6 C3.39439664 5.93334624 4.79169875 5.91461801 6.1875 5.9375 C8.0746875 5.9684375 8.0746875 5.9684375 10 6 C6.44377037 8.13373778 3.1158806 8.71116627 -1 9 C-3.9375 8.0625 -3.9375 8.0625 -6 7 C-5.67 5.02 -5.34 3.04 -5 1 C-2 0 -2 0 0 0 Z " fill="#E01C49" transform="translate(73,45)"/>
<path d="M0 0 C1.5 1.375 1.5 1.375 3 3 C3 3.66 3 4.32 3 5 C2.34 5 1.68 5 1 5 C1.226875 5.515625 1.45375 6.03125 1.6875 6.5625 C2.15630178 10.2191539 0.50728193 12.69557422 -1 16 C-1.69140522 18.77888613 -1.69140522 18.77888613 -2 21 C-2.66 20.01 -3.32 19.02 -4 18 C-4.66 18 -5.32 18 -6 18 C-5.61330541 11.03949747 -3.36561591 6.0605925 0 0 Z " fill="#CD1D66" transform="translate(28,49)"/>
<path d="M0 0 C-0.95745218 3.22052097 -1.5940664 4.71157349 -4.375 6.6875 C-5.674375 7.3371875 -5.674375 7.3371875 -7 8 C-7.721875 8.391875 -8.44375 8.78375 -9.1875 9.1875 C-11 10 -11 10 -13 10 C-13 11.32 -13 12.64 -13 14 C-14.65 14 -16.3 14 -18 14 C-16.28032649 10.97009905 -14.70761694 8.23672704 -12 6 C-11.34 6 -10.68 6 -10 6 C-10 5.34 -10 4.68 -10 4 C-6.32547562 1.1605948 -4.73113419 0 0 0 Z " fill="#D2285B" transform="translate(66,47)"/>
<path d="M0 0 C2.475 0.495 2.475 0.495 5 1 C4.67 1.66 4.34 2.32 4 3 C5.98 2.67 7.96 2.34 10 2 C10.33 3.98 10.66 5.96 11 8 C10.319375 7.79503906 9.63875 7.59007812 8.9375 7.37890625 C0.27297497 4.97081352 -8.0673983 4.32873788 -17 4 C-17 3.67 -17 3.34 -17 3 C-11.06 2.67 -5.12 2.34 1 2 C0.67 1.34 0.34 0.68 0 0 Z " fill="#F2E9E8" transform="translate(92,17)"/>
<path d="M0 0 C2 2 2 2 3 5 C4.65 4.67 6.3 4.34 8 4 C8 5.98 8 7.96 8 10 C7.34 10 6.68 10 6 10 C6 10.66 6 11.32 6 12 C5.01 12 4.02 12 3 12 C2.01 13.485 2.01 13.485 1 15 C0.67 13.35 0.34 11.7 0 10 C-0.33 10 -0.66 10 -1 10 C-1.125 2.25 -1.125 2.25 0 0 Z " fill="#F9FCFD" transform="translate(33,69)"/>
<path d="M0 0 C0.33 0 0.66 0 1 0 C1.33 7.59 1.66 15.18 2 23 C1.34 23 0.68 23 0 23 C-0.33 24.32 -0.66 25.64 -1 27 C-1.50310058 25.2092015 -2.00238628 23.41733089 -2.5 21.625 C-2.7784375 20.62726563 -3.056875 19.62953125 -3.34375 18.6015625 C-4 16 -4 16 -4 14 C-2.68 14 -1.36 14 0 14 C0 9.38 0 4.76 0 0 Z " fill="#CB1362" transform="translate(24,75)"/>
<path d="M0 0 C0.66 0 1.32 0 2 0 C2.33 2.31 2.66 4.62 3 7 C3.99 6.67 4.98 6.34 6 6 C6.33 6.99 6.66 7.98 7 9 C6.38125 9.268125 5.7625 9.53625 5.125 9.8125 C2.7004767 10.95556848 2.7004767 10.95556848 1 14 C0.67 12.68 0.34 11.36 0 10 C-0.66 10 -1.32 10 -2 10 C-2 7.36 -2 4.72 -2 2 C-1.34 2 -0.68 2 0 2 C0 1.34 0 0.68 0 0 Z " fill="#E5263C" transform="translate(105,54)"/>
<path d="M0 0 C3.39519868 0.46036592 5.42228479 0.2463349 8.6875 -0.5 C9.3475 -0.17 10.0075 0.16 10.6875 0.5 C10.6875 1.16 10.6875 1.82 10.6875 2.5 C4.7475 3.82 -1.1925 5.14 -7.3125 6.5 C-6.9825 5.84 -6.6525 5.18 -6.3125 4.5 C-5.3225 4.5 -4.3325 4.5 -3.3125 4.5 C-3.9725 3.18 -4.6325 1.86 -5.3125 0.5 C-3.3125 -0.5 -3.3125 -0.5 0 0 Z " fill="#F7F4F5" transform="translate(64.3125,18.5)"/>
<path d="M0 0 C0.33 0.99 0.66 1.98 1 3 C0.2884375 4.175625 0.2884375 4.175625 -0.4375 5.375 C-2.22910215 7.87575205 -2.22910215 7.87575205 -2 10.6875 C-2 11.450625 -2 12.21375 -2 13 C-2.99 13.66 -3.98 14.32 -5 15 C-5.58481121 17.88595946 -5.58481121 17.88595946 -5.6875 21.125 C-5.75324219 22.22070312 -5.81898437 23.31640625 -5.88671875 24.4453125 C-5.92410156 25.28835937 -5.96148437 26.13140625 -6 27 C-6.33 27 -6.66 27 -7 27 C-7.738041 10.1070615 -7.738041 10.1070615 -3 3 C-2.34 3 -1.68 3 -1 3 C-0.67 2.01 -0.34 1.02 0 0 Z " fill="#ECD5DE" transform="translate(60,62)"/>
<path d="M0 0 C0.66 0 1.32 0 2 0 C1.67 0.66 1.34 1.32 1 2 C0.67 1.34 0.34 0.68 0 0 Z M-1 2 C-0.13375 2.350625 0.7325 2.70125 1.625 3.0625 C5.24825242 4.068959 7.3853322 3.86063519 11 3 C11 3.66 11 4.32 11 5 C10.01 5 9.02 5 8 5 C7.8453125 5.9590625 7.8453125 5.9590625 7.6875 6.9375 C7.460625 7.618125 7.23375 8.29875 7 9 C6.01 9.33 5.02 9.66 4 10 C3.34 9.67 2.68 9.34 2 9 C2 8.01 2 7.02 2 6 C1.01 6 0.02 6 -1 6 C-1 4.68 -1 3.36 -1 2 Z " fill="#DE2540" transform="translate(92,48)"/>
<path d="M0 0 C0.33 0 0.66 0 1 0 C1.25394531 0.94101563 1.50789063 1.88203125 1.76953125 2.8515625 C2.11371094 4.09679687 2.45789063 5.34203125 2.8125 6.625 C3.14894531 7.85476562 3.48539063 9.08453125 3.83203125 10.3515625 C4.90044899 14.02533569 4.90044899 14.02533569 6.69921875 17.3359375 C7.12847656 18.21507813 7.55773438 19.09421875 8 20 C7.67 20.66 7.34 21.32 7 22 C6.01 22 5.02 22 4 22 C2.22919853 17.06705304 1.07605508 12.11598119 0 7 C-0.226875 6.030625 -0.45375 5.06125 -0.6875 4.0625 C-1 2 -1 2 0 0 Z " fill="#F1DAE8" transform="translate(20,91)"/>
<path d="M0 0 C0.721875 0.391875 1.44375 0.78375 2.1875 1.1875 C4.17970557 1.87710962 6.17855606 2.54829057 8.1875 3.1875 C8.5175 5.1675 8.8475 7.1475 9.1875 9.1875 C9.8475 9.1875 10.5075 9.1875 11.1875 9.1875 C10.8575 9.8475 10.5275 10.5075 10.1875 11.1875 C8.43722675 9.91704304 6.68729256 8.64611894 4.9375 7.375 C3.96296875 6.66730469 2.9884375 5.95960937 1.984375 5.23046875 C-0.29439009 3.56595179 -2.56015822 1.88748177 -4.8125 0.1875 C-1.8125 -0.8125 -1.8125 -0.8125 0 0 Z " fill="#F2DBDC" transform="translate(111.8125,26.8125)"/>
<path d="M0 0 C3.00617269 3.00617269 2.59585316 5.82381598 3 10 C2.34 10 1.68 10 1 10 C-0.62514468 11.45833358 -0.62514468 11.45833358 -2 13 C-3 6.375 -3 6.375 -3 3 C-1.5 1.3125 -1.5 1.3125 0 0 Z " fill="#F6EDEB" transform="translate(126,63)"/>
<path d="M0 0 C0.598125 0.33 1.19625 0.66 1.8125 1 C4.05386471 2.20787988 4.05386471 2.20787988 7 2 C7 2.99 7 3.98 7 5 C6.34 5 5.68 5 5 5 C4.67 5.99 4.34 6.98 4 8 C3.67 8.33 3.34 8.66 3 9 C2.01 9 1.02 9 0 9 C-1.125 6.1875 -1.125 6.1875 -2 3 C-1.34 2.01 -0.68 1.02 0 0 Z " fill="#F9FAFC" transform="translate(46,108)"/>
<path d="M0 0 C0.4125 0.38671875 0.825 0.7734375 1.25 1.171875 C5.5586764 5.05737783 9.7225368 7.59273608 15 10 C11.58389775 10.94314127 8.54865136 11.08065117 5 11 C5 10.34 5 9.68 5 9 C4.01 9 3.02 9 2 9 C1.855625 8.2575 1.71125 7.515 1.5625 6.75 C1.09800774 4.47914894 0.57094564 2.24539967 0 0 Z " fill="#CA285A" transform="translate(57,97)"/>
<path d="M0 0 C0.94875 0.350625 1.8975 0.70125 2.875 1.0625 C5.87060172 2.35026777 5.87060172 2.35026777 8 1 C8.33 2.65 8.66 4.3 9 6 C9.66 6 10.32 6 11 6 C10.67 7.32 10.34 8.64 10 10 C10.66 10 11.32 10 12 10 C11.67 10.66 11.34 11.32 11 12 C2.3690205 4.88610478 2.3690205 4.88610478 0 0 Z " fill="#C91E57" transform="translate(47,101)"/>
<path d="M0 0 C0.66 0.33 1.32 0.66 2 1 C2.08082094 2.95766281 2.13910778 4.91626728 2.1875 6.875 C2.22230469 7.96554688 2.25710937 9.05609375 2.29296875 10.1796875 C2.19628906 11.11039063 2.09960938 12.04109375 2 13 C-1.6441774 15.4294516 -3.71241272 15.16179575 -8 15 C-7.67 14.34 -7.34 13.68 -7 13 C-5.02 13 -3.04 13 -1 13 C-0.67 8.71 -0.34 4.42 0 0 Z " fill="#D73348" transform="translate(108,120)"/>
<path d="M0 0 C1.76923828 0.01353516 1.76923828 0.01353516 3.57421875 0.02734375 C4.47785156 0.03894531 5.38148437 0.05054688 6.3125 0.0625 C6.3125 0.3925 6.3125 0.7225 6.3125 1.0625 C3.0125 1.3925 -0.2875 1.7225 -3.6875 2.0625 C-1.0475 2.3925 1.5925 2.7225 4.3125 3.0625 C3.3225 3.5575 3.3225 3.5575 2.3125 4.0625 C1.9825 4.7225 1.6525 5.3825 1.3125 6.0625 C-3.1425 5.0725 -3.1425 5.0725 -7.6875 4.0625 C-7.6875 3.4025 -7.6875 2.7425 -7.6875 2.0625 C-8.3475 1.7325 -9.0075 1.4025 -9.6875 1.0625 C-6.26517028 -0.07827657 -3.60076783 -0.03565117 0 0 Z " fill="#CB234A" transform="translate(80.6875,42.9375)"/>
<path d="M0 0 C0.66 0.33 1.32 0.66 2 1 C0.35 5.29 -1.3 9.58 -3 14 C-3.66 13.67 -4.32 13.34 -5 13 C-5.66 13.99 -6.32 14.98 -7 16 C-6.67 13.03 -6.34 10.06 -6 7 C-5.01 7.33 -4.02 7.66 -3 8 C-3 6.02 -3 4.04 -3 2 C-2.34 2 -1.68 2 -1 2 C-0.67 1.34 -0.34 0.68 0 0 Z " fill="#C5195D" transform="translate(35,57)"/>
<path d="M0 0 C1.32 0.33 2.64 0.66 4 1 C4 1.66 4 2.32 4 3 C4.99 3 5.98 3 7 3 C7 3.99 7 4.98 7 6 C5.72125 5.690625 4.4425 5.38125 3.125 5.0625 C-1.88758722 3.93885167 -6.88510956 3.40577419 -12 3 C-12 2.67 -12 2.34 -12 2 C-8.04 2 -4.08 2 0 2 C0 1.34 0 0.68 0 0 Z " fill="#D1445E" transform="translate(87,51)"/>
<path d="M0 0 C0.99 0 1.98 0 3 0 C2.67 1.98 2.34 3.96 2 6 C1.34 6 0.68 6 0 6 C0 8.64 0 11.28 0 14 C0.66 14.33 1.32 14.66 2 15 C1.01 15.33 0.02 15.66 -1 16 C-2.46322678 13.07354643 -1.88789453 10.67394481 -1.625 7.4375 C-1.53476562 6.26058594 -1.44453125 5.08367187 -1.3515625 3.87109375 C-1 1 -1 1 0 0 Z " fill="#F3F6F8" transform="translate(56,77)"/>
<path d="M0 0 C0.99 0.33 1.98 0.66 3 1 C3 1.66 3 2.32 3 3 C2.34 3 1.68 3 1 3 C1 5.64 1 8.28 1 11 C0.34 11 -0.32 11 -1 11 C-1.33 10.34 -1.66 9.68 -2 9 C-2.66 9.66 -3.32 10.32 -4 11 C-3.48964169 6.6109185 -2.47785723 3.66291938 0 0 Z " fill="#CD2861" transform="translate(47,62)"/>
<path d="M0 0 C0.66 0 1.32 0 2 0 C2.33 1.32 2.66 2.64 3 4 C3.66 3.67 4.32 3.34 5 3 C5 7.29 5 11.58 5 16 C1.49729653 12.49729653 1.42830509 11.09683188 0.8125 6.3125 C0.65394531 5.13300781 0.49539062 3.95351562 0.33203125 2.73828125 C0.22246094 1.83464844 0.11289063 0.93101563 0 0 Z " fill="#FAF0EE" transform="translate(139,65)"/>
<path d="M0 0 C0.33 0.66 0.66 1.32 1 2 C0.01 2.99 -0.98 3.98 -2 5 C-1.67 5.66 -1.34 6.32 -1 7 C-4.3 7 -7.6 7 -11 7 C-7.7129243 3.18699218 -4.60272162 1.77027754 0 0 Z " fill="#CD295E" transform="translate(57,25)"/>
<path d="M0 0 C3.63 0 7.26 0 11 0 C8.47764868 1.68156755 5.96413358 3.16468006 3.3125 4.625 C2.50425781 5.07101563 1.69601563 5.51703125 0.86328125 5.9765625 C0.24839844 6.31429687 -0.36648437 6.65203125 -1 7 C-0.67 4.69 -0.34 2.38 0 0 Z " fill="#F5EAEF" transform="translate(44,26)"/>
<path d="M0 0 C0 2.64 0 5.28 0 8 C-1.9375 7.6875 -1.9375 7.6875 -4 7 C-5 4 -5 4 -4 1 C-2 0 -2 0 0 0 Z " fill="#F5F7F6" transform="translate(25,49)"/>
<path d="M0 0 C1.37562854 1.28965176 2.70766393 2.62689293 4 4 C4 4.66 4 5.32 4 6 C5.32 6 6.64 6 8 6 C7.67 7.65 7.34 9.3 7 11 C6.34 10.67 5.68 10.34 5 10 C5 9.34 5 8.68 5 8 C4.34 8 3.68 8 3 8 C-1.65909091 3.68181818 -1.65909091 3.68181818 -3 1 C-2.01 0.67 -1.02 0.34 0 0 Z " fill="#D33B45" transform="translate(114,41)"/>
<path d="M0 0 C2.97 0.495 2.97 0.495 6 1 C5.01 1.495 5.01 1.495 4 2 C4 2.66 4 3.32 4 4 C2.58376784 4.05447047 1.16691809 4.09300508 -0.25 4.125 C-1.03890625 4.14820313 -1.8278125 4.17140625 -2.640625 4.1953125 C-5 4 -5 4 -9 2 C-6.03 2 -3.06 2 0 2 C0 1.34 0 0.68 0 0 Z " fill="#FBF3F7" transform="translate(64,140)"/>
<path d="M0 0 C0.66 0 1.32 0 2 0 C3.0625 1.8125 3.0625 1.8125 4 4 C3.67 4.99 3.34 5.98 3 7 C2.01 6.67 1.02 6.34 0 6 C0 5.34 0 4.68 0 4 C-0.66 3.67 -1.32 3.34 -2 3 C-1.34 2.01 -0.68 1.02 0 0 Z M-2 5 C-1.34 5.66 -0.68 6.32 0 7 C-1.32 7.33 -2.64 7.66 -4 8 C-3.34 7.01 -2.68 6.02 -2 5 Z " fill="#FBFBFD" transform="translate(40,57)"/>
<path d="M0 0 C1.75 1.5625 1.75 1.5625 3 3 C2 4 2 4 -0.875 4.3125 C-4 4 -4 4 -5.875 2 C-6.24625 1.34 -6.6175 0.68 -7 0 C-3.83170302 -1.05609899 -3.01480825 -1.13055309 0 0 Z " fill="#D41649" transform="translate(75,115)"/>
<path d="M0 0 C1.65 0.33 3.3 0.66 5 1 C4.67 1.99 4.34 2.98 4 4 C4.66 4 5.32 4 6 4 C5 6 5 6 3.125 6.75 C1 7 1 7 -2 5 C-1.34 4.67 -0.68 4.34 0 4 C0 2.68 0 1.36 0 0 Z " fill="#D30E4D" transform="translate(53,128)"/>
<path d="M0 0 C1.32 0 2.64 0 4 0 C4.33 0.99 4.66 1.98 5 3 C5.66 3.33 6.32 3.66 7 4 C7.625 6.5625 7.625 6.5625 8 9 C8.66 9 9.32 9 10 9 C9.67 9.99 9.34 10.98 9 12 C6 8 3 4 0 0 Z " fill="#C74052" transform="translate(98,60)"/>
<path d="M0 0 C2.625 0.9375 2.625 0.9375 5 2 C3.35 3.32 1.7 4.64 0 6 C-1.32 5.34 -2.64 4.68 -4 4 C-3.34 3.67 -2.68 3.34 -2 3 C-2 2.34 -2 1.68 -2 1 C-1.34 0.67 -0.68 0.34 0 0 Z " fill="#DB1257" transform="translate(44,38)"/>
<path d="M0 0 C1.32 1.32 2.64 2.64 4 4 C3.67 4.99 3.34 5.98 3 7 C2.34 7 1.68 7 1 7 C0.67 7.66 0.34 8.32 0 9 C-1.125 7.3125 -1.125 7.3125 -2 5 C-1.125 2.25 -1.125 2.25 0 0 Z " fill="#DA0F60" transform="translate(32,106)"/>
<path d="M0 0 C1.24546405 2.49092811 0.7767578 3.41080733 0 6 C0.66 6 1.32 6 2 6 C0.74458443 8.51083114 -0.50063488 8.87125446 -3 10 C-4 7 -4 7 -3.22265625 5.17578125 C-2.1484375 3.45052083 -1.07421875 1.72526042 0 0 Z " fill="#F2DFEA" transform="translate(38,55)"/>
<path d="M0 0 C0.99 0 1.98 0 3 0 C3.33 1.98 3.66 3.96 4 6 C4.66 6 5.32 6 6 6 C6 7.98 6 9.96 6 12 C3.25207517 8.59780735 0 4.51535412 0 0 Z " fill="#D43A45" transform="translate(122,53)"/>
<path d="M0 0 C2.475 0.99 2.475 0.99 5 2 C5.8125 4.625 5.8125 4.625 6 7 C6.99 7.33 7.98 7.66 9 8 C8.01 9.485 8.01 9.485 7 11 C4.69 7.37 2.38 3.74 0 0 Z " fill="#F4E7E3" transform="translate(125,40)"/>
<path d="M0 0 C2.97 0.99 5.94 1.98 9 3 C5.23312136 4.88343932 3.97041037 5.22057835 0 5 C0 3.35 0 1.7 0 0 Z " fill="#F8E7EF" transform="translate(54,136)"/>
<path d="M0 0 C0.66 0.33 1.32 0.66 2 1 C1.01 3.31 0.02 5.62 -1 8 C-1.99 7.67 -2.98 7.34 -4 7 C-4.33 6.01 -4.66 5.02 -5 4 C-3.35 2.68 -1.7 1.36 0 0 Z " fill="#F0E6E8" transform="translate(66,57)"/>
<path d="M0 0 C2.52588702 2.36292656 3.88820837 3.66462511 5 7 C4.34 7 3.68 7 3 7 C3 7.66 3 8.32 3 9 C2.01 8.67 1.02 8.34 0 8 C0 5.36 0 2.72 0 0 Z " fill="#F1DEE9" transform="translate(28,113)"/>
<path d="M0 0 C1.98 1.65 3.96 3.3 6 5 C5.67 5.66 5.34 6.32 5 7 C3.68 7 2.36 7 1 7 C-0.0625 4.625 -0.0625 4.625 -1 2 C-0.67 1.34 -0.34 0.68 0 0 Z " fill="#D74856" transform="translate(107,54)"/>
<path d="M0 0 C1.48206495 0.254496 2.96068615 0.52911762 4.4375 0.8125 C5.67306641 1.03873047 5.67306641 1.03873047 6.93359375 1.26953125 C7.95646484 1.63111328 7.95646484 1.63111328 9 2 C9.33 2.99 9.66 3.98 10 5 C10.66 5 11.32 5 12 5 C11.67 5.66 11.34 6.32 11 7 C7.37 5.02 3.74 3.04 0 1 C0 0.67 0 0.34 0 0 Z " fill="#D44D5C" transform="translate(99,35)"/>
<path d="M0 0 C1.32 0.66 2.64 1.32 4 2 C4 2.66 4 3.32 4 4 C2.35 4.33 0.7 4.66 -1 5 C-1 5.66 -1 6.32 -1 7 C-1.99 7 -2.98 7 -4 7 C-4 5 -4 5 -2.5625 3.5 C-2.046875 3.005 -1.53125 2.51 -1 2 C-0.67 1.34 -0.34 0.68 0 0 Z " fill="#DC464B" transform="translate(121,37)"/>
<path d="M0 0 C4.455 1.98 4.455 1.98 9 4 C5.41220825 4.89694794 2.65381163 5.08304117 -1 5 C-0.67 3.35 -0.34 1.7 0 0 Z " fill="#D13262" transform="translate(63,103)"/>
<path d="M0 0 C2 2 2 2 2.125 4.625 C2.08375 5.40875 2.0425 6.1925 2 7 C1.01 7.495 1.01 7.495 0 8 C-1.4606285 5.35261084 -2 4.10551666 -2 1 C-1.34 0.67 -0.68 0.34 0 0 Z " fill="#C41561" transform="translate(26,101)"/>
<path d="M0 0 C6.93 0.495 6.93 0.495 14 1 C14 1.33 14 1.66 14 2 C6.08 2.495 6.08 2.495 -2 3 C-1.34 2.67 -0.68 2.34 0 2 C0 1.34 0 0.68 0 0 Z " fill="#F9D8E2" transform="translate(71,41)"/>
<path d="M0 0 C4.875 4.625 4.875 4.625 6 8 C5.34 8 4.68 8 4 8 C3.34 7.34 2.68 6.68 2 6 C0.68252676 5.30251417 -0.64914193 4.63040043 -2 4 C-1.34 3.34 -0.68 2.68 0 2 C0 1.34 0 0.68 0 0 Z " fill="#D3494B" transform="translate(125,41)"/>
<path d="M0 0 C0 0.99 0 1.98 0 3 C-0.66 3 -1.32 3 -2 3 C-2 3.66 -2 4.32 -2 5 C-1.34 5 -0.68 5 0 5 C-0.33 5.99 -0.66 6.98 -1 8 C-1 7.34 -1 6.68 -1 6 C-1.99 5.67 -2.98 5.34 -4 5 C-4.6875 2.9375 -4.6875 2.9375 -5 1 C-3.35 0.67 -1.7 0.34 0 0 Z " fill="#EE303E" transform="translate(119,39)"/>
<path d="M0 0 C0.33 0.66 0.66 1.32 1 2 C1.99 2.33 2.98 2.66 4 3 C4 4.65 4 6.3 4 8 C3.01 8.495 3.01 8.495 2 9 C0.50178941 5.62902617 0 3.79557881 0 0 Z " fill="#C31B55" transform="translate(44,91)"/>
<path d="M0 0 C0.66 0.66 1.32 1.32 2 2 C0.68 4.31 -0.64 6.62 -2 9 C-2.66 8.01 -3.32 7.02 -4 6 C-3.0022242 3.00667261 -2.2477975 2.05233685 0 0 Z " fill="#F3E5EB" transform="translate(47,58)"/>
<path d="M0 0 C1.37562854 1.28965176 2.70766393 2.62689293 4 4 C4 4.66 4 5.32 4 6 C2.68 6 1.36 6 0 6 C-1.125 2.25 -1.125 2.25 0 0 Z " fill="#EEE3DF" transform="translate(119,51)"/>
<path d="M0 0 C1.32 0.33 2.64 0.66 4 1 C3.01 1.495 3.01 1.495 2 2 C2 2.66 2 3.32 2 4 C0.02 4.99 0.02 4.99 -2 6 C-2.33 5.34 -2.66 4.68 -3 4 C-2.67 3.34 -2.34 2.68 -2 2 C-1.34 2 -0.68 2 0 2 C0 1.34 0 0.68 0 0 Z " fill="#EFE9EC" transform="translate(54,49)"/>
<path d="M0 0 C1.32 0.33 2.64 0.66 4 1 C4 1.66 4 2.32 4 3 C5.9600281 4.63676257 5.9600281 4.63676257 8 6 C5.125 5.8125 5.125 5.8125 2 5 C0.625 2.4375 0.625 2.4375 0 0 Z " fill="#BE1F53" transform="translate(55,133)"/>
<path d="M0 0 C1.98 0.99 3.96 1.98 6 3 C4.02 3.99 4.02 3.99 2 5 C1.01 4.34 0.02 3.68 -1 3 C-0.67 2.01 -0.34 1.02 0 0 Z " fill="#F6EDF3" transform="translate(46,132)"/>
<path d="M0 0 C0.66 0.33 1.32 0.66 2 1 C0.8125 3 0.8125 3 -1 5 C-3.6875 5.25 -3.6875 5.25 -6 5 C-2.25 1.125 -2.25 1.125 0 0 Z " fill="#CB3C65" transform="translate(62,47)"/>
<path d="M0 0 C0.66 0.33 1.32 0.66 2 1 C1.01 2.485 1.01 2.485 0 4 C-3.625 4.6875 -3.625 4.6875 -7 5 C-4.63707344 2.47411298 -3.33537489 1.11179163 0 0 Z " fill="#F3C8D3" transform="translate(61,35)"/>
<path d="M0 0 C2.0625 0.4375 2.0625 0.4375 4 1 C4 1.99 4 2.98 4 4 C2.68 4.33 1.36 4.66 0 5 C-0.5625 3.0625 -0.5625 3.0625 -1 1 C-0.67 0.67 -0.34 0.34 0 0 Z " fill="#D60B58" transform="translate(37,111)"/>
<path d="M0 0 C1.98 0 3.96 0 6 0 C5.67 0.99 5.34 1.98 5 3 C3.35 3 1.7 3 0 3 C0 2.01 0 1.02 0 0 Z " fill="#E01B4E" transform="translate(67,109)"/>
<path d="M0 0 C2.4375 0.6875 2.4375 0.6875 5 2 C5.8125 4.625 5.8125 4.625 6 7 C1.125 2.25 1.125 2.25 0 0 Z " fill="#C12D5F" transform="translate(47,101)"/>
<path d="M0 0 C0.33 0 0.66 0 1 0 C1.66 3.3 2.32 6.6 3 10 C0.9375 8.375 0.9375 8.375 -1 6 C-0.75 2.75 -0.75 2.75 0 0 Z " fill="#EEC8DC" transform="translate(20,91)"/>
<path d="M0 0 C2.88437779 1.29299694 4.87219421 2.65941363 7 5 C5.02 4.34 3.04 3.68 1 3 C0.67 3.66 0.34 4.32 0 5 C-0.33 4.01 -0.66 3.02 -1 2 C-0.67 1.34 -0.34 0.68 0 0 Z " fill="#CF3843" transform="translate(111,30)"/>
</svg>
