<?xml version="1.0" encoding="UTF-8"?>
<svg version="1.1" xmlns="http://www.w3.org/2000/svg" width="200" height="200">
<path d="M0 0 C66 0 132 0 200 0 C200 66 200 132 200 200 C134 200 68 200 0 200 C0 134 0 68 0 0 Z " fill="#FEFEFD" transform="translate(0,0)"/>
<path d="M0 0 C1.1612439 0.00233139 2.32248779 0.00466278 3.5189209 0.00706482 C5.97346341 0.01680589 8.42798331 0.03860089 10.88232422 0.0715332 C14.64193967 0.12090582 18.40024601 0.13301158 22.16015625 0.13867188 C24.54428477 0.15275918 26.92840192 0.16896404 29.3125 0.1875 C30.43861694 0.1928627 31.56473389 0.1982254 32.72497559 0.20375061 C33.77286255 0.21973801 34.82074951 0.2357254 35.90039062 0.25219727 C36.82098267 0.26283707 37.74157471 0.27347687 38.69006348 0.28443909 C41.15625 0.55859375 41.15625 0.55859375 45.15625 2.55859375 C45.48625 34.56859375 45.81625 66.57859375 46.15625 99.55859375 C52.09625 99.55859375 58.03625 99.55859375 64.15625 99.55859375 C65.79290061 103.65022028 66.4102874 105.24502183 66.421875 109.31640625 C66.42445313 110.18910156 66.42703125 111.06179687 66.4296875 111.9609375 C66.42195312 112.85941406 66.41421875 113.75789063 66.40625 114.68359375 C66.41398438 115.58980469 66.42171875 116.49601562 66.4296875 117.4296875 C66.42710937 118.29980469 66.42453125 119.16992188 66.421875 120.06640625 C66.41961914 120.8567627 66.41736328 121.64711914 66.41503906 122.46142578 C66.15625 124.55859375 66.15625 124.55859375 64.15625 127.55859375 C60.62491003 128.73570707 57.83170655 128.69048538 54.10279846 128.69903564 C53.38026868 128.70200677 52.6577389 128.70497789 51.91331428 128.70803905 C49.48589904 128.71672886 47.05853309 128.71823452 44.63110352 128.71972656 C42.89332982 128.72435445 41.15555714 128.72937907 39.41778564 128.73477173 C34.69263919 128.74789854 29.96750694 128.75434097 25.24234509 128.75878239 C22.29194716 128.76171201 19.34155312 128.76581655 16.39115715 128.77028656 C7.16474569 128.7839608 -2.06165688 128.79362842 -11.28807777 128.79748845 C-21.94784908 128.80197241 -32.60749236 128.81953628 -43.26722473 128.84848905 C-51.50167716 128.87008044 -59.73609351 128.88019133 -67.97057396 128.88152957 C-72.89138174 128.88257921 -77.81206917 128.88852101 -82.73284721 128.90634918 C-87.35967701 128.92278648 -91.9862954 128.92500659 -96.61314392 128.91621017 C-98.31272 128.91543753 -100.01230725 128.91981239 -101.71185493 128.92966843 C-104.02926232 128.94232121 -106.34591335 128.93654813 -108.66331482 128.92608643 C-110.60982768 128.92828627 -110.60982768 128.92828627 -112.59566402 128.93053055 C-116.03135643 128.53711103 -117.44291814 128.00118355 -119.84375 125.55859375 C-120.32958984 123.44555664 -120.32958984 123.44555664 -120.3046875 121.03125 C-120.30082031 120.15662109 -120.29695313 119.28199219 -120.29296875 118.38085938 C-120.26847656 117.47013672 -120.24398437 116.55941406 -120.21875 115.62109375 C-120.21746094 114.71423828 -120.21617188 113.80738281 -120.21484375 112.87304688 C-120.15321364 108.21997352 -119.99158738 105.85426852 -117.84375 101.55859375 C-51.51375 101.06359375 -51.51375 101.06359375 16.15625 100.55859375 C16.15625 77.12859375 16.15625 53.69859375 16.15625 29.55859375 C6.91625 29.55859375 -2.32375 29.55859375 -11.84375 29.55859375 C-16.35158182 22.79684602 -16.35158182 22.79684602 -16.375 19.2109375 C-16.38273437 18.05561523 -16.38273437 18.05561523 -16.390625 16.87695312 C-16.37515625 16.09126953 -16.3596875 15.30558594 -16.34375 14.49609375 C-16.36695312 13.31176758 -16.36695312 13.31176758 -16.390625 12.10351562 C-16.38546875 11.33458984 -16.3803125 10.56566406 -16.375 9.7734375 C-16.37048828 9.0837085 -16.36597656 8.39397949 -16.36132812 7.68334961 C-14.21973311 -1.10830201 -7.55825229 -0.13109668 0 0 Z " fill="#FDB203" transform="translate(128.84375,32.44140625)"/>
<path d="M0 0 C0.80023087 -0.00014603 1.60046173 -0.00029205 2.42494202 -0.0004425 C5.0708385 0.00025434 7.71666464 0.0080361 10.36254883 0.01586914 C12.196721 0.01773413 14.03089368 0.01915765 15.86506653 0.02015686 C20.69344456 0.02397567 25.52179254 0.03380055 30.35015869 0.04486084 C35.27681064 0.05508862 40.20346745 0.05965741 45.13012695 0.06469727 C54.79745787 0.07542336 64.46476648 0.09249218 74.13208008 0.11352539 C76.70809691 4.97807611 76.49974274 9.24272494 76.50708008 14.67602539 C76.53157227 15.63444336 76.55606445 16.59286133 76.58129883 17.58032227 C76.58516602 18.50006836 76.5890332 19.41981445 76.59301758 20.36743164 C76.60123535 21.20604736 76.60945313 22.04466309 76.61791992 22.90869141 C76.13208008 25.11352539 76.13208008 25.11352539 74.60331726 26.72607422 C71.16006126 28.65925555 67.95210039 28.54044655 64.10644531 28.51757812 C63.30113373 28.52444138 62.49582214 28.53130463 61.66610718 28.53837585 C59.00744948 28.55665961 56.34938082 28.55280506 53.69067383 28.54711914 C51.84269518 28.55167939 49.99471824 28.55698449 48.14674377 28.56300354 C44.27565617 28.57193712 40.40477487 28.56950777 36.53369141 28.55957031 C31.56779139 28.54806575 26.60260088 28.56831348 21.63679409 28.59748745 C17.82183802 28.61581103 14.0070533 28.61556495 10.19206429 28.60984993 C8.36078965 28.60969632 6.52950368 28.61577321 4.6982708 28.6281414 C2.14116382 28.64298172 -0.41461495 28.63242761 -2.97167969 28.61523438 C-3.73072098 28.62490234 -4.48976227 28.63457031 -5.27180481 28.64453125 C-10.39022762 28.572285 -10.39022762 28.572285 -12.83717346 26.22232056 C-14.02444214 23.79329796 -14.25491662 22.15094776 -14.26635742 19.45336914 C-14.27022461 18.57745117 -14.2740918 17.7015332 -14.27807617 16.79907227 C-14.26647461 15.8922168 -14.25487305 14.98536133 -14.24291992 14.05102539 C-14.25452148 13.14030273 -14.26612305 12.22958008 -14.27807617 11.29125977 C-14.27420898 10.41663086 -14.2703418 9.54200195 -14.26635742 8.64086914 C-14.26297363 7.84414795 -14.25958984 7.04742676 -14.25610352 6.2265625 C-13.77132987 3.58774744 -12.97330229 2.73383508 -10.86791992 1.11352539 C-7.19587837 -0.11048846 -3.82231477 -0.01817822 0 0 Z " fill="#FDB203" transform="translate(21.867919921875,32.886474609375)"/>
<path d="M0 0 C1.22500717 -0.00810448 1.22500717 -0.00810448 2.47476196 -0.01637268 C5.17088183 -0.02886819 7.86593578 -0.01236685 10.56201172 0.00561523 C12.43480485 0.00546029 14.30759831 0.00397216 16.1803894 0.00120544 C20.10282588 -0.00017881 24.0248968 0.01238631 27.94726562 0.03515625 C32.98268566 0.0635802 38.01750003 0.06079333 43.05296516 0.04806614 C46.9184998 0.04112309 50.78389359 0.04888181 54.64941025 0.06132317 C56.50661556 0.0658483 58.36383592 0.06616524 60.22104263 0.06225777 C62.81174168 0.05935797 65.40159513 0.07579126 67.9921875 0.09765625 C68.7641748 0.0931546 69.53616211 0.08865295 70.33154297 0.08401489 C72.46414185 0.11402893 72.46414185 0.11402893 75.86669922 0.50170898 C78.00027694 3.70207557 78.12242263 4.56688765 78.13232422 8.24780273 C78.13619141 9.62742187 78.13619141 9.62742187 78.14013672 11.03491211 C78.13240234 11.99333008 78.12466797 12.95174805 78.11669922 13.93920898 C78.12830078 15.37103516 78.12830078 15.37103516 78.14013672 16.83178711 C78.13755859 17.75282227 78.13498047 18.67385742 78.13232422 19.62280273 C78.13006836 20.46254639 78.1278125 21.30229004 78.12548828 22.16748047 C77.84503065 24.69715535 77.04897668 26.27359749 75.86669922 28.50170898 C65.39198337 28.54805938 54.91729193 28.58359198 44.44249439 28.60533333 C39.57856943 28.61576833 34.71471465 28.62992243 29.85083008 28.65258789 C25.15648903 28.67432626 20.46221549 28.68627975 15.76782799 28.69146347 C13.97728094 28.69515743 12.18673756 28.70237079 10.39621925 28.7131691 C7.88735611 28.7276972 5.37877152 28.72968637 2.86987305 28.72875977 C1.76072289 28.73954559 1.76072289 28.73954559 0.62916565 28.75054932 C-4.5788248 28.72975027 -8.37914217 28.2558676 -12.13330078 24.50170898 C-12.60845963 21.23149808 -12.50367127 17.92755307 -12.50830078 14.62670898 C-12.53279297 13.7153418 -12.55728516 12.80397461 -12.58251953 11.86499023 C-12.58638672 10.98456055 -12.59025391 10.10413086 -12.59423828 9.19702148 C-12.60245605 8.39280762 -12.61067383 7.58859375 -12.61914062 6.76000977 C-11.18124534 0.07632566 -5.82367393 -0.07331716 0 0 Z " fill="#FDB202" transform="translate(20.13330078125,81.498291015625)"/>
<path d="M0 0 C1.1612439 0.00233139 2.32248779 0.00466278 3.5189209 0.00706482 C5.97346341 0.01680589 8.42798331 0.03860089 10.88232422 0.0715332 C14.64193967 0.12090582 18.40024601 0.13301158 22.16015625 0.13867188 C24.54428477 0.15275918 26.92840192 0.16896404 29.3125 0.1875 C30.43861694 0.1928627 31.56473389 0.1982254 32.72497559 0.20375061 C33.77286255 0.21973801 34.82074951 0.2357254 35.90039062 0.25219727 C36.82098267 0.26283707 37.74157471 0.27347687 38.69006348 0.28443909 C41.15625 0.55859375 41.15625 0.55859375 45.15625 2.55859375 C45.48625 34.56859375 45.81625 66.57859375 46.15625 99.55859375 C52.09625 99.55859375 58.03625 99.55859375 64.15625 99.55859375 C65.82649973 103.73421807 66.40514914 105.26891035 66.3515625 109.421875 C66.34511719 110.30810547 66.33867187 111.19433594 66.33203125 112.10742188 C66.30689453 113.47543945 66.30689453 113.47543945 66.28125 114.87109375 C66.27222656 115.80244141 66.26320313 116.73378906 66.25390625 117.69335938 C66.23043263 119.98203735 66.19759729 122.27018047 66.15625 124.55859375 C65.16625 125.05359375 65.16625 125.05359375 64.15625 125.55859375 C64.15625 118.95859375 64.15625 112.35859375 64.15625 105.55859375 C61.949375 105.39359375 59.7425 105.22859375 57.46875 105.05859375 C56.22738281 104.96578125 54.98601562 104.87296875 53.70703125 104.77734375 C50.28305038 104.47016119 50.28305038 104.47016119 47.38671875 104.83984375 C45.15625 104.55859375 45.15625 104.55859375 43.54386902 102.62153625 C41.64715478 98.43484914 41.71637986 94.81705561 41.72387695 90.27026367 C41.70858948 88.87928467 41.70858948 88.87928467 41.69299316 87.46020508 C41.66286211 84.4030961 41.65359694 81.34630047 41.64453125 78.2890625 C41.62768467 76.1662746 41.60953446 74.04349668 41.59013367 71.92073059 C41.54262542 66.33947873 41.51282125 60.75826733 41.48669434 55.17687988 C41.4568931 49.47916678 41.41036122 43.78159306 41.36523438 38.08398438 C41.27919178 26.90892707 41.21185062 15.73384108 41.15625 4.55859375 C34.26945788 4.53322284 27.38267783 4.51571804 20.49584961 4.50366211 C18.15339711 4.49863574 15.81094775 4.49181367 13.46850586 4.4831543 C10.10008978 4.47101457 6.73171522 4.46534844 3.36328125 4.4609375 C2.31727249 4.45577621 1.27126373 4.45061493 0.19355774 4.44529724 C-1.27740105 4.44518394 -1.27740105 4.44518394 -2.77807617 4.44506836 C-3.63745285 4.44284775 -4.49682953 4.44062714 -5.38224792 4.43833923 C-8.28981089 4.51950964 -8.28981089 4.51950964 -12.84375 5.55859375 C-12.84375 12.15859375 -12.84375 18.75859375 -12.84375 25.55859375 C-10.71292969 25.60757813 -8.58210938 25.6565625 -6.38671875 25.70703125 C-4.3214622 25.76105228 -2.25632098 25.81835521 -0.19116211 25.87597656 C1.24332068 25.91424241 2.67789865 25.94909956 4.11254883 25.98046875 C6.17563878 26.02617237 8.23807495 26.08415568 10.30078125 26.14453125 C11.54190674 26.17595215 12.78303223 26.20737305 14.06176758 26.23974609 C17.15625 26.55859375 17.15625 26.55859375 20.15625 28.55859375 C20.15625 29.54859375 20.15625 30.53859375 20.15625 31.55859375 C19.49625 31.55859375 18.83625 31.55859375 18.15625 31.55859375 C18.15625 53.66859375 18.15625 75.77859375 18.15625 98.55859375 C17.82625 98.55859375 17.49625 98.55859375 17.15625 98.55859375 C16.82625 75.78859375 16.49625 53.01859375 16.15625 29.55859375 C6.91625 29.55859375 -2.32375 29.55859375 -11.84375 29.55859375 C-16.35158182 22.79684602 -16.35158182 22.79684602 -16.375 19.2109375 C-16.38015625 18.44072266 -16.3853125 17.67050781 -16.390625 16.87695312 C-16.37515625 16.09126953 -16.3596875 15.30558594 -16.34375 14.49609375 C-16.35921875 13.70654297 -16.3746875 12.91699219 -16.390625 12.10351562 C-16.38546875 11.33458984 -16.3803125 10.56566406 -16.375 9.7734375 C-16.37048828 9.0837085 -16.36597656 8.39397949 -16.36132812 7.68334961 C-14.21973311 -1.10830201 -7.55825229 -0.13109668 0 0 Z " fill="#F4C045" transform="translate(128.84375,32.44140625)"/>
<path d="M0 0 C0.36262939 0.4844458 0.72525879 0.9688916 1.09887695 1.46801758 C3.83165807 3.67017521 5.94024291 3.43303717 9.41796875 3.51171875 C10.67158203 3.54716797 11.92519531 3.58261719 13.21679688 3.61914062 C15.18229492 3.65297852 15.18229492 3.65297852 17.1875 3.6875 C18.52282013 3.72067666 19.85810832 3.75516666 21.19335938 3.79101562 C24.46215504 3.87362057 27.73067812 3.94273229 31 4 C32.43596747 6.87193493 32.12729859 9.33557662 32.12939453 12.54516602 C32.13202301 13.55268921 32.13202301 13.55268921 32.13470459 14.58056641 C32.13911291 16.80503915 32.13618904 19.02943267 32.1328125 21.25390625 C32.13348575 22.79564937 32.13445596 24.33739238 32.13571167 25.87913513 C32.13718719 29.11140961 32.13503845 32.34365647 32.13037109 35.57592773 C32.12466911 39.72798894 32.12795669 43.87998557 32.13394356 48.03204441 C32.13754902 51.21551504 32.13641074 54.39897025 32.13381577 57.58244133 C32.1331467 59.11392156 32.13397421 60.64540317 32.13629532 62.17688179 C32.13882212 64.31270206 32.13498112 66.4484162 32.12939453 68.58422852 C32.12859894 69.80175308 32.12780334 71.01927765 32.12698364 72.2736969 C32 75 32 75 31 76 C29.26678538 76.10846611 27.52915544 76.14686827 25.79258728 76.15821838 C24.09928032 76.17290161 24.09928032 76.17290161 22.37176514 76.18788147 C21.12236145 76.19363693 19.87295776 76.1993924 18.58569336 76.20532227 C16.62500664 76.22017166 16.62500664 76.22017166 14.62471008 76.23532104 C11.02986239 76.26243408 7.43500149 76.28340887 3.84010768 76.30332303 C0.0871111 76.32514326 -3.66584446 76.35255127 -7.41880798 76.37937927 C-14.5302785 76.42935992 -21.64177173 76.47427874 -28.75328678 76.51740164 C-36.8474998 76.5667282 -44.94167167 76.62166326 -53.03584492 76.67708123 C-69.69052538 76.79098371 -86.34524351 76.89780465 -103 77 C-104.44455415 81.33366245 -104.22455025 85.52290014 -104.25 90.0625 C-104.270625 90.98611328 -104.29125 91.90972656 -104.3125 92.86132812 C-104.31765625 93.74369141 -104.3228125 94.62605469 -104.328125 95.53515625 C-104.34214355 96.74764038 -104.34214355 96.74764038 -104.35644531 97.98461914 C-104.23881836 98.64969482 -104.12119141 99.31477051 -104 100 C-100.2534345 102.49771033 -98.32355028 102.24677894 -93.84370422 102.24050903 C-92.7434255 102.24307231 -92.7434255 102.24307231 -91.62091893 102.24568737 C-89.15644181 102.24898865 -86.69223535 102.23796818 -84.2277832 102.22705078 C-82.46381639 102.2264868 -80.69984911 102.22680296 -78.93588257 102.22793579 C-74.14071767 102.22851083 -69.34565235 102.21673201 -64.55051064 102.20278788 C-59.54166938 102.19030576 -54.53282597 102.18911201 -49.52397156 102.18673706 C-40.03611175 102.18051487 -30.54829791 102.16409407 -21.06045836 102.14403808 C-10.26011704 102.12170204 0.54022645 102.11069143 11.34058511 102.10064721 C33.56041575 102.07972848 55.78020498 102.04453817 78 102 C77.67 102.66 77.34 103.32 77 104 C53.45236517 104.07001497 29.90474589 104.12295129 6.35702801 104.15543652 C-4.5760629 104.17091944 -15.50908922 104.19203616 -26.44213867 104.22631836 C-35.96901608 104.25617711 -45.49584673 104.27556462 -55.02276963 104.28226548 C-60.06935456 104.28618373 -65.11580567 104.29542165 -70.16234779 104.31719017 C-74.90895378 104.33749969 -79.65537037 104.34384505 -84.40201569 104.33932304 C-86.14716558 104.34015073 -87.89232159 104.34614926 -89.63743401 104.35761642 C-92.0144501 104.37247421 -94.39074479 104.36897859 -96.76777649 104.36076355 C-97.46329961 104.36950207 -98.15882272 104.3782406 -98.8754223 104.38724393 C-101.72274057 104.36052231 -103.56959741 104.30692126 -105.92576885 102.62672901 C-108.36356035 98.93513419 -107.51043756 93.82885254 -107.5 89.5625 C-107.52835937 88.51255859 -107.55671875 87.46261719 -107.5859375 86.38085938 C-107.58980469 84.86395508 -107.58980469 84.86395508 -107.59375 83.31640625 C-107.60083984 82.39287354 -107.60792969 81.46934082 -107.61523438 80.51782227 C-107 78 -107 78 -105.24861145 75.87101746 C-100.15677141 72.93840402 -95.18048344 73.47710693 -89.40698242 73.54589844 C-88.12853455 73.54531433 -86.85008667 73.54473022 -85.53289795 73.54412842 C-82.03514562 73.54298238 -78.53794378 73.56647297 -75.0403192 73.59442425 C-71.38215802 73.61945674 -67.72398374 73.62178134 -64.06575012 73.62652588 C-57.14197353 73.63895028 -50.21845006 73.67176444 -43.29478484 73.71192384 C-33.93632779 73.7650256 -24.57780135 73.78659136 -15.21923161 73.80993271 C-0.4792982 73.84752644 14.2601011 73.92722036 29 74 C29 51.23 29 28.46 29 5 C20.09 5 11.18 5 2 5 C1.01 2.525 1.01 2.525 0 0 Z " fill="#FCE4A6" transform="translate(114,58)"/>
<path d="M0 0 C43.89 0 87.78 0 133 0 C133 0.66 133 1.32 133 2 C132.35008496 2.00238835 131.70016993 2.00477671 131.03056049 2.00723743 C115.21453438 2.06638104 99.39868446 2.14192688 83.58282948 2.23571491 C75.93438406 2.28067491 68.28598522 2.32008906 60.63745117 2.34643555 C53.97075528 2.36941403 47.30420678 2.40281026 40.63762778 2.44870156 C37.10790712 2.47263598 33.57833244 2.49136324 30.04853249 2.49761391 C26.10746884 2.50478808 22.16677104 2.53522127 18.22583008 2.56762695 C17.05626266 2.56619186 15.88669525 2.56475677 14.6816864 2.5632782 C13.60621552 2.57581635 12.53074463 2.58835449 11.42268372 2.60127258 C10.49075101 2.60588155 9.5588183 2.61049051 8.59864521 2.61523914 C5.41367728 3.08681217 3.53796695 4.0295603 1 6 C0.45741599 8.91076834 0.21040294 11.27373662 0.1875 14.1875 C0.16236328 14.93708984 0.13722656 15.68667969 0.11132812 16.45898438 C0.05252424 18.30542621 0.02338266 20.15277002 0 22 C0.99 22.33 1.98 22.66 3 23 C3 23.66 3 24.32 3 25 C25.45277212 25.02335812 47.90554224 25.04099351 70.35832405 25.05181217 C80.78348319 25.05696893 91.20863477 25.06399984 101.63378906 25.07543945 C110.72011536 25.08540521 119.80643618 25.09185795 128.89276779 25.09408849 C133.70409374 25.09539238 138.51540406 25.09845792 143.32672501 25.10573006 C147.85579056 25.11252008 152.38483403 25.11461087 156.91390419 25.11310768 C158.57554431 25.11338267 160.23718516 25.11537009 161.89882088 25.11920547 C164.16948225 25.12418928 166.44006054 25.122981 168.71072388 25.12025452 C169.98095461 25.12117631 171.25118534 25.1220981 172.55990791 25.12304783 C175.79813699 25.00722039 178.82250229 24.61501911 182 24 C182 24.66 182 25.32 182 26 C178.46866003 27.17711332 175.67545655 27.13189163 171.94654846 27.14044189 C171.22401868 27.14341302 170.5014889 27.14638414 169.75706428 27.1494453 C167.32964904 27.15813511 164.90228309 27.15964077 162.47485352 27.16113281 C160.73707982 27.1657607 158.99930714 27.17078532 157.26153564 27.17617798 C152.53638919 27.18930479 147.81125694 27.19574722 143.08609509 27.20018864 C140.13569716 27.20311826 137.18530312 27.2072228 134.23490715 27.21169281 C125.00849569 27.22536705 115.78209312 27.23503467 106.55567223 27.2388947 C95.89590092 27.24337866 85.23625764 27.26094253 74.57652527 27.2898953 C66.34207284 27.31148669 58.10765649 27.32159758 49.87317604 27.32293582 C44.95236826 27.32398546 40.03168083 27.32992726 35.11090279 27.34775543 C30.48407299 27.36419273 25.8574546 27.36641284 21.23060608 27.35761642 C19.53103 27.35684378 17.83144275 27.36121864 16.13189507 27.37107468 C13.81448768 27.38372746 11.49783665 27.37795438 9.18043518 27.36749268 C7.23392232 27.36969252 7.23392232 27.36969252 5.24808598 27.3719368 C1.81239357 26.97851728 0.40083186 26.4425898 -2 24 C-2.48583984 21.88696289 -2.48583984 21.88696289 -2.4609375 19.47265625 C-2.45707031 18.59802734 -2.45320312 17.72339844 -2.44921875 16.82226562 C-2.42472656 15.91154297 -2.40023438 15.00082031 -2.375 14.0625 C-2.37371094 13.15564453 -2.37242188 12.24878906 -2.37109375 11.31445312 C-2.30946364 6.66137977 -2.14783738 4.29567477 0 0 Z " fill="#F1BA33" transform="translate(11,134)"/>
<path d="M0 0 C1.22500717 -0.00810448 1.22500717 -0.00810448 2.47476196 -0.01637268 C5.17088183 -0.02886819 7.86593578 -0.01236685 10.56201172 0.00561523 C12.43480485 0.00546029 14.30759831 0.00397216 16.1803894 0.00120544 C20.10282588 -0.00017881 24.0248968 0.01238631 27.94726562 0.03515625 C32.98268566 0.0635802 38.01750003 0.06079333 43.05296516 0.04806614 C46.9184998 0.04112309 50.78389359 0.04888181 54.64941025 0.06132317 C56.50661556 0.0658483 58.36383592 0.06616524 60.22104263 0.06225777 C62.81174168 0.05935797 65.40159513 0.07579126 67.9921875 0.09765625 C68.7641748 0.0931546 69.53616211 0.08865295 70.33154297 0.08401489 C72.46414185 0.11402893 72.46414185 0.11402893 75.86669922 0.50170898 C78.00027694 3.70207557 78.12242263 4.56688765 78.13232422 8.24780273 C78.13619141 9.62742187 78.13619141 9.62742187 78.14013672 11.03491211 C78.13240234 11.99333008 78.12466797 12.95174805 78.11669922 13.93920898 C78.12830078 15.37103516 78.12830078 15.37103516 78.14013672 16.83178711 C78.13755859 17.75282227 78.13498047 18.67385742 78.13232422 19.62280273 C78.13006836 20.46254639 78.1278125 21.30229004 78.12548828 22.16748047 C77.84503065 24.69715535 77.04897668 26.27359749 75.86669922 28.50170898 C65.39198337 28.54805938 54.91729193 28.58359198 44.44249439 28.60533333 C39.57856943 28.61576833 34.71471465 28.62992243 29.85083008 28.65258789 C25.15648903 28.67432626 20.46221549 28.68627975 15.76782799 28.69146347 C13.97728094 28.69515743 12.18673756 28.70237079 10.39621925 28.7131691 C7.88735611 28.7276972 5.37877152 28.72968637 2.86987305 28.72875977 C1.76072289 28.73954559 1.76072289 28.73954559 0.62916565 28.75054932 C-4.5788248 28.72975027 -8.37914217 28.2558676 -12.13330078 24.50170898 C-12.60845963 21.23149808 -12.50367127 17.92755307 -12.50830078 14.62670898 C-12.53279297 13.7153418 -12.55728516 12.80397461 -12.58251953 11.86499023 C-12.58638672 10.98456055 -12.59025391 10.10413086 -12.59423828 9.19702148 C-12.60245605 8.39280762 -12.61067383 7.58859375 -12.61914062 6.76000977 C-11.18124534 0.07632566 -5.82367393 -0.07331716 0 0 Z M-7.13330078 3.50170898 C-9.11837592 7.74112814 -9.38000749 11.55493849 -9.32080078 16.18920898 C-9.31435547 17.30682617 -9.30791016 18.42444336 -9.30126953 19.57592773 C-9.25754898 22.5645205 -9.25754898 22.5645205 -8.13330078 25.50170898 C-4.62412131 26.96889959 -0.72608496 26.65717966 3.01855469 26.69458008 C3.73126526 26.70275757 4.44397583 26.71093506 5.17828369 26.71936035 C7.53014299 26.74411543 9.88194243 26.7607027 12.23388672 26.77514648 C13.03913914 26.78047016 13.84439156 26.78579384 14.67404556 26.79127884 C18.93438005 26.81796437 23.19468567 26.83735597 27.45507812 26.85180664 C30.97617509 26.86515646 34.49669399 26.89303402 38.01757812 26.93383789 C42.27570964 26.98317861 46.53331618 27.00792862 50.79172134 27.01503372 C52.41123313 27.02173996 54.03073348 27.03694587 55.65008163 27.06092453 C57.91935839 27.09261687 60.18661389 27.09260841 62.45605469 27.08520508 C63.74526825 27.09329193 65.03448181 27.10137878 66.36276245 27.10971069 C71.01091808 26.30316458 72.61345053 24.87689047 75.86669922 21.50170898 C76.66305025 18.10560246 76.66305025 18.10560246 76.36669922 14.50170898 C76.33576172 13.30545898 76.30482422 12.10920898 76.27294922 10.87670898 C75.88990676 7.69451013 75.11017539 5.42225822 73.86669922 2.50170898 C63.8962338 2.47854409 53.92577478 2.4607727 43.95528793 2.44989681 C39.32565104 2.44467708 34.69603255 2.4375959 30.06640625 2.42626953 C25.5990099 2.41540839 21.13163125 2.40942528 16.66422272 2.40683174 C14.95938081 2.40498332 13.25453988 2.40137388 11.54970551 2.39597893 C9.1628357 2.38872572 6.7760392 2.38771986 4.38916016 2.38818359 C3.33072151 2.38279068 3.33072151 2.38279068 2.25090027 2.37728882 C-2.54530082 2.32400055 -2.54530082 2.32400055 -7.13330078 3.50170898 Z " fill="#F1BD37" transform="translate(20.13330078125,81.498291015625)"/>
<path d="M0 0 C0.80023087 -0.00014603 1.60046173 -0.00029205 2.42494202 -0.0004425 C5.0708385 0.00025434 7.71666464 0.0080361 10.36254883 0.01586914 C12.196721 0.01773413 14.03089368 0.01915765 15.86506653 0.02015686 C20.69344456 0.02397567 25.52179254 0.03380055 30.35015869 0.04486084 C35.27681064 0.05508862 40.20346745 0.05965741 45.13012695 0.06469727 C54.79745787 0.07542336 64.46476648 0.09249218 74.13208008 0.11352539 C75.84599093 3.33187676 76.37212386 5.42993523 76.32739258 9.09790039 C76.32094727 10.0324707 76.31450195 10.96704102 76.30786133 11.92993164 C76.28272461 13.38206055 76.28272461 13.38206055 76.25708008 14.86352539 C76.24805664 15.84708008 76.2390332 16.83063477 76.22973633 17.84399414 C76.20620793 20.26741946 76.17333376 22.69034761 76.13208008 25.11352539 C74.64708008 25.60852539 74.64708008 25.60852539 73.13208008 26.11352539 C73.29506592 25.53828125 73.45805176 24.96303711 73.62597656 24.37036133 C74.12245535 22.15644432 74.24687752 20.26678742 74.22973633 18.00415039 C74.22651367 17.25004883 74.22329102 16.49594727 74.2199707 15.71899414 C74.2115918 14.94168945 74.20321289 14.16438477 74.19458008 13.36352539 C74.19006836 12.57075195 74.18555664 11.77797852 74.1809082 10.96118164 C74.16916573 9.01193031 74.15123153 7.06271801 74.13208008 5.11352539 C69.46022427 4.19395145 64.94335491 3.97621464 60.19897461 4 C59.42756638 3.99985397 58.65615814 3.99970795 57.8613739 3.9995575 C55.32918416 4.00025031 52.79706936 4.00801298 50.26489258 4.01586914 C48.50226888 4.01773556 46.73964467 4.01915841 44.97702026 4.02015686 C40.35089674 4.02396437 35.7248049 4.0337795 31.09869385 4.04486084 C26.37284778 4.05511301 21.64699657 4.05966262 16.92114258 4.06469727 C7.65810563 4.07540342 -1.60489955 4.09298584 -10.86791992 4.11352539 C-10.53791992 11.70352539 -10.20791992 19.29352539 -9.86791992 27.11352539 C17.19208008 27.11352539 44.25208008 27.11352539 72.13208008 27.11352539 C72.13208008 27.44352539 72.13208008 27.77352539 72.13208008 28.11352539 C61.36211016 28.20611792 50.5922346 28.27723572 39.82194805 28.32077408 C34.82109732 28.34166811 29.82051846 28.37001883 24.81982422 28.4152832 C19.99579501 28.45867628 15.17202765 28.48264881 10.34781837 28.49303436 C8.50534758 28.50043751 6.66289146 28.51489385 4.82053185 28.53644562 C2.24396937 28.56539315 -0.33150477 28.5694851 -2.90820312 28.56762695 C-3.67352859 28.58200806 -4.43885406 28.59638916 -5.22737122 28.61120605 C-10.39006684 28.57079617 -10.39006684 28.57079617 -12.84114075 26.22529602 C-14.02255148 23.79549558 -14.25492391 22.14922769 -14.26635742 19.45336914 C-14.27022461 18.57745117 -14.2740918 17.7015332 -14.27807617 16.79907227 C-14.26647461 15.8922168 -14.25487305 14.98536133 -14.24291992 14.05102539 C-14.25452148 13.14030273 -14.26612305 12.22958008 -14.27807617 11.29125977 C-14.27420898 10.41663086 -14.2703418 9.54200195 -14.26635742 8.64086914 C-14.26297363 7.84414795 -14.25958984 7.04742676 -14.25610352 6.2265625 C-13.77132987 3.58774744 -12.97330229 2.73383508 -10.86791992 1.11352539 C-7.19587837 -0.11048846 -3.82231477 -0.01817822 0 0 Z " fill="#F3BA35" transform="translate(21.867919921875,32.886474609375)"/>
<path d="M0 0 C0.8147731 -0.00817749 1.6295462 -0.01635498 2.4690094 -0.02478027 C5.17081969 -0.04963626 7.87257756 -0.06614813 10.57446289 -0.08056641 C11.95619784 -0.08855192 11.95619784 -0.08855192 13.36584663 -0.09669876 C18.23868096 -0.12342746 23.11148966 -0.14280582 27.984375 -0.15722656 C33.02659203 -0.17390076 38.06815877 -0.21870219 43.11012936 -0.26959801 C46.97995287 -0.30318413 50.84962012 -0.31479429 54.71957588 -0.32045364 C56.57880198 -0.32718692 58.43801707 -0.34246255 60.29710197 -0.36634445 C62.89522945 -0.39782364 65.49157714 -0.39805974 68.08984375 -0.390625 C68.86137787 -0.40703033 69.63291199 -0.42343567 70.42782593 -0.44033813 C72.573349 -0.41513062 72.573349 -0.41513062 76.10961914 0.19287109 C80.75566044 5.90900475 80.31991557 12.30026509 80.35961914 19.31787109 C80.38024414 20.23697266 80.40086914 21.15607422 80.42211914 22.10302734 C80.42985352 23.41980469 80.42985352 23.41980469 80.43774414 24.76318359 C80.44708984 25.5651416 80.45643555 26.36709961 80.46606445 27.19335938 C80.3484375 27.85319824 80.23081055 28.51303711 80.10961914 29.19287109 C76.34737365 31.70103476 73.41175702 31.46033251 69.05810547 31.41992188 C68.23836746 31.42021393 67.41862946 31.42050598 66.5740509 31.42080688 C63.86314325 31.41941297 61.15251006 31.40384891 58.44165039 31.38818359 C56.56263886 31.38445368 54.68362538 31.38160661 52.80461121 31.37960815 C47.85782506 31.37196998 42.91115627 31.35231988 37.9644165 31.3302002 C32.91713041 31.30974575 27.86982536 31.30060729 22.82250977 31.29052734 C12.91816132 31.26907419 3.01389999 31.23493599 -6.89038086 31.19287109 C-6.89038086 30.86287109 -6.89038086 30.53287109 -6.89038086 30.19287109 C-5.88448914 30.18478424 -4.87859741 30.17669739 -3.84222412 30.16836548 C5.63383974 30.09090639 15.10975998 30.00316765 24.58563614 29.90534401 C29.45737099 29.8553819 34.32908417 29.80905179 39.20092773 29.77099609 C43.90185315 29.73414229 48.60259719 29.68778198 53.30336761 29.63480759 C55.09748912 29.61626416 56.89164951 29.601156 58.68582916 29.58952713 C61.19739892 29.57266382 63.70855334 29.5436287 66.2199707 29.51171875 C67.33451378 29.50847847 67.33451378 29.50847847 68.47157288 29.50517273 C72.16784172 29.44511374 74.96731857 29.23659467 78.10961914 27.19287109 C77.97045225 23.77589871 77.82212329 20.35938353 77.67211914 16.94287109 C77.63280273 15.97478516 77.59348633 15.00669922 77.55297852 14.00927734 C77.51108398 13.07470703 77.46918945 12.14013672 77.42602539 11.17724609 C77.38936768 10.3184082 77.35270996 9.45957031 77.31494141 8.57470703 C77.12215157 6.33825324 76.67923085 4.35727784 76.10961914 2.19287109 C65.50443695 2.30044109 54.89932199 2.41308845 44.29426289 2.53221035 C39.36986303 2.58736454 34.44545717 2.64077248 29.52099609 2.69018555 C24.76825558 2.73793985 20.01558577 2.79028653 15.26292992 2.84581184 C13.4500829 2.8661853 11.63721653 2.88490653 9.8243351 2.90194511 C7.28434895 2.92610024 4.74449521 2.95613931 2.20458984 2.98754883 C1.45580566 2.99330429 0.70702148 2.99905975 -0.06445312 3.00498962 C-3.87432585 3.05850905 -7.11425602 3.43764613 -10.89038086 4.19287109 C-10.89038086 12.11287109 -10.89038086 20.03287109 -10.89038086 28.19287109 C-11.55038086 27.86287109 -12.21038086 27.53287109 -12.89038086 27.19287109 C-12.91932018 23.56788776 -12.93715878 19.94293396 -12.95288086 16.31787109 C-12.96125977 15.28533203 -12.96963867 14.25279297 -12.97827148 13.18896484 C-12.98149414 12.20283203 -12.9847168 11.21669922 -12.98803711 10.20068359 C-12.99327393 9.28947754 -12.99851074 8.37827148 -13.00390625 7.43945312 C-12.89038086 5.19287109 -12.89038086 5.19287109 -11.89038086 3.19287109 C-11.23038086 3.19287109 -10.57038086 3.19287109 -9.89038086 3.19287109 C-9.89038086 2.53287109 -9.89038086 1.87287109 -9.89038086 1.19287109 C-6.7652503 -0.36969418 -3.43219603 0.01890094 0 0 Z " fill="#FEEDBD" transform="translate(19.890380859375,30.80712890625)"/>
<path d="M0 0 C1.32 0.33 2.64 0.66 4 1 C4.33 33.01 4.66 65.02 5 98 C10.94 98 16.88 98 23 98 C24.67024973 102.17562432 25.24889914 103.7103166 25.1953125 107.86328125 C25.18886719 108.74951172 25.18242187 109.63574219 25.17578125 110.54882812 C25.15902344 111.46083984 25.14226562 112.37285156 25.125 113.3125 C25.11597656 114.24384766 25.10695312 115.17519531 25.09765625 116.13476562 C25.07418263 118.4234436 25.04134729 120.71158672 25 123 C24.01 123.495 24.01 123.495 23 124 C22.97494385 123.40461426 22.9498877 122.80922852 22.92407227 122.19580078 C22.80822506 119.50530864 22.68544804 116.8151766 22.5625 114.125 C22.52318359 113.18785156 22.48386719 112.25070313 22.44335938 111.28515625 C22.40146484 110.38925781 22.35957031 109.49335938 22.31640625 108.5703125 C22.27974854 107.74289551 22.24309082 106.91547852 22.20532227 106.06298828 C22.11761673 103.93820571 22.11761673 103.93820571 21 102 C15.39 101.67 9.78 101.34 4 101 C2.31652644 97.63305289 2.8374815 93.81997193 2.82641602 90.11572266 C2.8163855 88.73503853 2.8163855 88.73503853 2.80615234 87.32646179 C2.79208188 85.32338419 2.78019422 83.32029037 2.77020454 81.31718826 C2.75382635 78.148604 2.73058983 74.98013993 2.70530701 71.81161499 C2.63444296 62.80122848 2.57438675 53.79079275 2.52319336 44.78027344 C2.49142251 39.27307353 2.45015088 33.76601121 2.40299797 28.25892258 C2.3869655 26.15777433 2.37464971 24.05659436 2.36609077 21.95540237 C2.35395289 19.01781477 2.3298091 16.08055126 2.30297852 13.14306641 C2.30238937 12.27226944 2.30180023 11.40147247 2.30119324 10.50428772 C2.29147491 9.70233475 2.28175659 8.90038177 2.27174377 8.0741272 C2.26751184 7.37984934 2.2632799 6.68557148 2.25891972 5.9702549 C1.9550676 3.65808595 1.13784679 2.02027258 0 0 Z " fill="#FBDE97" transform="translate(170,34)"/>
<path d="M0 0 C0.80052292 -0.00029205 1.60104584 -0.00058411 2.42582703 -0.00088501 C5.06093338 0.00050373 7.69575384 0.01604339 10.33081055 0.03173828 C12.16212306 0.03547003 13.99343758 0.03831624 15.82475281 0.04031372 C20.63670395 0.04793741 25.44853371 0.06757505 30.26043701 0.08972168 C35.17385211 0.11020734 40.08728689 0.11932126 45.00073242 0.12939453 C54.63555128 0.15082213 64.27028018 0.18494283 73.9050293 0.22705078 C75.61894015 3.44540216 76.14507308 5.54346062 76.1003418 9.21142578 C76.09389648 10.14599609 76.08745117 11.08056641 76.08081055 12.04345703 C76.05567383 13.49558594 76.05567383 13.49558594 76.0300293 14.97705078 C76.02100586 15.96060547 76.01198242 16.94416016 76.00268555 17.95751953 C75.97915715 20.38094485 75.94628298 22.803873 75.9050293 25.22705078 C74.4200293 25.72205078 74.4200293 25.72205078 72.9050293 26.22705078 C73.06729004 25.64963135 73.22955078 25.07221191 73.39672852 24.47729492 C73.88702414 22.30675948 74.03411865 20.44187271 74.0378418 18.22314453 C74.03913086 17.48257813 74.04041992 16.74201172 74.04174805 15.97900391 C74.03788086 15.21523438 74.03401367 14.45146484 74.0300293 13.66455078 C74.03389648 12.89691406 74.03776367 12.12927734 74.04174805 11.33837891 C74.0360103 8.0477794 73.95249961 5.36946171 72.9050293 2.22705078 C62.28257575 2.33456103 51.66019013 2.44719633 41.03786087 2.56639004 C36.10558544 2.62157397 31.17330403 2.67498677 26.2409668 2.72436523 C21.48174645 2.77207554 16.72259766 2.82442083 11.96346283 2.87999153 C10.14699839 2.90038486 8.33051436 2.91910291 6.5140152 2.9361248 C3.97142958 2.9602357 1.4289786 2.99028112 -1.11352539 3.02172852 C-1.86590485 3.02748398 -2.6182843 3.03323944 -3.39346313 3.03916931 C-6.75995284 3.08655376 -9.87523071 3.18215712 -13.0949707 4.22705078 C-13.0949707 3.56705078 -13.0949707 2.90705078 -13.0949707 2.22705078 C-8.7434909 0.07580154 -4.75462589 -0.04565853 0 0 Z " fill="#F6C455" transform="translate(22.094970703125,32.77294921875)"/>
<path d="M0 0 C10.91765747 -0.0694059 21.83526276 -0.12276327 32.75309563 -0.15543652 C37.82229256 -0.17111533 42.89133895 -0.19239389 47.96044922 -0.22631836 C52.84930025 -0.25883298 57.73800616 -0.2768363 62.62695694 -0.28463173 C64.49535534 -0.29018948 66.36374549 -0.30104192 68.23208237 -0.31719017 C70.84223559 -0.33885972 73.45178352 -0.34197136 76.06201172 -0.34057617 C77.22941895 -0.35675491 77.22941895 -0.35675491 78.42041016 -0.3732605 C80.57052612 -0.36076355 80.57052612 -0.36076355 84 0 C86.13357772 3.20036658 86.25572341 4.06517867 86.265625 7.74609375 C86.26949219 9.12571289 86.26949219 9.12571289 86.2734375 10.53320312 C86.26570313 11.49162109 86.25796875 12.45003906 86.25 13.4375 C86.26160156 14.86932617 86.26160156 14.86932617 86.2734375 16.33007812 C86.27085938 17.25111328 86.26828125 18.17214844 86.265625 19.12109375 C86.26336914 19.9608374 86.26111328 20.80058105 86.25878906 21.66577148 C86 24 86 24 84 28 C57.27 28 30.54 28 3 28 C3 27.67 3 27.34 3 27 C42.105 26.505 42.105 26.505 82 26 C83.78751064 22.42497872 84.25159946 21.44952993 84.23046875 17.77734375 C84.22853516 16.99166016 84.22660156 16.20597656 84.22460938 15.39648438 C84.21236328 14.58501953 84.20011719 13.77355469 84.1875 12.9375 C84.18685547 12.12216797 84.18621094 11.30683594 84.18554688 10.46679688 C84.15980554 6.98599679 84.11145888 4.33437664 83 1 C41.42 1.495 41.42 1.495 -1 2 C-0.67 1.34 -0.34 0.68 0 0 Z " fill="#F3C859" transform="translate(12,82)"/>
<path d="M0 0 C0.98714493 0.48608231 1.97428986 0.97216461 2.99134827 1.47297668 C7.01073212 3.18614218 10.80858521 3.44096867 15.13842773 3.43237305 C16.31038948 3.44766052 16.31038948 3.44766052 17.50602722 3.46325684 C20.06529046 3.49323322 22.62417849 3.502629 25.18359375 3.51171875 C26.96722136 3.52857687 28.75083718 3.54672863 30.53443909 3.56611633 C35.21145948 3.61349954 39.88843202 3.64338431 44.56561279 3.66955566 C49.34527025 3.69942027 54.12476304 3.74593028 58.90429688 3.79101562 C68.2694449 3.87691578 77.63462694 3.94432002 87 4 C83.34364968 6.43756688 80.60757024 6.29577027 76.37915039 6.29052734 C75.60485184 6.29724457 74.83055328 6.30396179 74.03279114 6.31088257 C71.4710144 6.3298939 68.90949916 6.33378819 66.34765625 6.3359375 C64.56790559 6.34236282 62.78815601 6.34909098 61.00840759 6.35610962 C57.27682038 6.36808991 53.5453258 6.37178963 49.8137207 6.37060547 C45.03063693 6.37040214 40.24814638 6.39771542 35.46520329 6.43214989 C31.78919238 6.45437931 28.1133252 6.45844425 24.43725395 6.45738602 C22.67378124 6.45974752 20.91030489 6.4686019 19.14689827 6.48405075 C16.68092319 6.50363305 14.21623972 6.49790429 11.75024414 6.48583984 C11.0212793 6.49707886 10.29231445 6.50831787 9.54125977 6.51989746 C6.08243028 6.47686582 4.29633057 6.22726619 1.51560974 4.09463501 C0 2 0 2 0 0 Z " fill="#FEF1C8" transform="translate(8,106)"/>
<path d="M0 0 C4.07549941 0.09361965 8.15046336 0.19973161 12.2253418 0.31738281 C13.61131907 0.3556435 14.99739465 0.39050156 16.38354492 0.421875 C18.3770164 0.46758699 20.37016914 0.52658925 22.36328125 0.5859375 C24.16212769 0.63306885 24.16212769 0.63306885 25.99731445 0.68115234 C29 1 29 1 32 3 C32 3.99 32 4.98 32 6 C31.34 6 30.68 6 30 6 C30 28.11 30 50.22 30 73 C29.67 73 29.34 73 29 73 C28.98969254 72.16506012 28.97938507 71.33012024 28.96876526 70.46987915 C28.87090025 62.61201027 28.76840161 54.75421858 28.66066074 46.89647865 C28.6054309 42.85646949 28.55201081 38.81645309 28.50268555 34.77636719 C28.45504287 30.87949595 28.40270011 26.98271391 28.34705925 23.08594894 C28.32663525 21.59718412 28.30792224 20.10839484 28.29092598 18.61958694 C28.26688289 16.53878157 28.23682841 14.45814525 28.20532227 12.37744141 C28.18200584 10.59873154 28.18200584 10.59873154 28.15821838 8.78408813 C28.18670351 6.04361935 28.18670351 6.04361935 27 4 C14.13 3.505 14.13 3.505 1 3 C0.67 2.01 0.34 1.02 0 0 Z " fill="#F2B62E" transform="translate(117,58)"/>
<path d="M0 0 C0.99 0.495 0.99 0.495 2 1 C2.08120751 3.89640118 2.14059421 6.79050912 2.1875 9.6875 C2.21263672 10.50412109 2.23777344 11.32074219 2.26367188 12.16210938 C2.27333984 12.95810547 2.28300781 13.75410156 2.29296875 14.57421875 C2.3086792 15.30213623 2.32438965 16.03005371 2.34057617 16.7800293 C1.86000809 19.91250643 1.02073227 21.53494517 -1 24 C-3.79354338 24.48887102 -5.98275538 24.63488254 -8.77612305 24.56762695 C-9.56660034 24.56835709 -10.35707764 24.56908722 -11.17150879 24.56983948 C-13.78560904 24.56635458 -16.39792966 24.5274533 -19.01171875 24.48828125 C-20.82346117 24.47895627 -22.63521618 24.47183867 -24.44697571 24.46684265 C-29.21650985 24.44774791 -33.98528316 24.39862601 -38.7545166 24.34332275 C-43.6207449 24.29218351 -48.48709609 24.26934001 -53.35351562 24.24414062 C-62.90267811 24.19050948 -72.4512758 24.10516689 -82 24 C-82.33 23.34 -82.66 22.68 -83 22 C-56.6 22 -30.2 22 -3 22 C-2.505 20.515 -2.505 20.515 -2 19 C-1.01 18.505 -1.01 18.505 0 18 C0 12.06 0 6.12 0 0 Z " fill="#F3B31C" transform="translate(95,85)"/>
<path d="M0 0 C0.598125 0.226875 1.19625 0.45375 1.8125 0.6875 C0.8225 1.0175 -0.1675 1.3475 -1.1875 1.6875 C-2.62104006 5.98812019 -2.37181214 10.1205541 -2.375 14.625 C-2.38724609 15.53185547 -2.39949219 16.43871094 -2.41210938 17.37304688 C-2.41500977 18.68692383 -2.41500977 18.68692383 -2.41796875 20.02734375 C-2.42207764 20.82519287 -2.42618652 21.62304199 -2.43041992 22.44506836 C-2.16248466 24.9184205 -1.42264985 26.54610446 -0.1875 28.6875 C-2.125 28.3125 -2.125 28.3125 -4.1875 27.6875 C-6.18528712 23.69192575 -5.41626505 18.64298005 -5.4375 14.25 C-5.458125 13.18716797 -5.47875 12.12433594 -5.5 11.02929688 C-5.50515625 10.01029297 -5.5103125 8.99128906 -5.515625 7.94140625 C-5.5249707 7.00627197 -5.53431641 6.0711377 -5.54394531 5.10766602 C-5.1875 2.6875 -5.1875 2.6875 -3.80371094 0.83959961 C-2.1875 -0.3125 -2.1875 -0.3125 0 0 Z " fill="#FCE9B2" transform="translate(12.1875,133.3125)"/>
<path d="M0 0 C2.93804996 -0.08086376 5.87388075 -0.1404283 8.8125 -0.1875 C9.64587891 -0.21263672 10.47925781 -0.23777344 11.33789062 -0.26367188 C12.54155273 -0.27817383 12.54155273 -0.27817383 13.76953125 -0.29296875 C14.87711792 -0.31653442 14.87711792 -0.31653442 16.00708008 -0.34057617 C18 0 18 0 19.74609375 1.2265625 C21.367535 3.51981586 21.34631449 4.87620855 21.29296875 7.66796875 C21.28330078 8.56064453 21.27363281 9.45332031 21.26367188 10.37304688 C21.23853516 11.30181641 21.21339844 12.23058594 21.1875 13.1875 C21.16719727 14.59805664 21.16719727 14.59805664 21.14648438 16.03710938 C21.11113096 18.35865038 21.06178674 20.67903653 21 23 C20.34 23.33 19.68 23.66 19 24 C18.97494385 23.40461426 18.9498877 22.80922852 18.92407227 22.19580078 C18.80822506 19.50530864 18.68544804 16.8151766 18.5625 14.125 C18.52318359 13.18785156 18.48386719 12.25070313 18.44335938 11.28515625 C18.40146484 10.38925781 18.35957031 9.49335938 18.31640625 8.5703125 C18.27974854 7.74289551 18.24309082 6.91547852 18.20532227 6.06298828 C18.11761673 3.93820571 18.11761673 3.93820571 17 2 C11.39 1.67 5.78 1.34 0 1 C0 0.67 0 0.34 0 0 Z " fill="#F4CB68" transform="translate(174,134)"/>
<path d="M0 0 C0.99 0.33 1.98 0.66 3 1 C4.11662325 3.89177817 4.11735344 6.69286303 4.09765625 9.765625 C4.09443359 10.65507813 4.09121094 11.54453125 4.08789062 12.4609375 C4.07951172 13.38132812 4.07113281 14.30171875 4.0625 15.25 C4.05798828 16.18585937 4.05347656 17.12171875 4.04882812 18.0859375 C4.03706918 20.39069041 4.02063426 22.69531227 4 25 C2.35 25.66 0.7 26.32 -1 27 C-0.67475342 26.44135254 -0.34950684 25.88270508 -0.0144043 25.30712891 C1.1323265 22.6990408 1.24424716 20.92320876 1.23046875 18.0859375 C1.22853516 17.16039063 1.22660156 16.23484375 1.22460938 15.28125 C1.21236328 14.3221875 1.20011719 13.363125 1.1875 12.375 C1.1865332 10.92480469 1.1865332 10.92480469 1.18554688 9.4453125 C1.34562486 4.56225146 1.34562486 4.56225146 0 0 Z " fill="#FEEDC2" transform="translate(96,35)"/>
<path d="M0 0 C0.33 1.32 0.66 2.64 1 4 C6.94 4 12.88 4 19 4 C19.33 4.99 19.66 5.98 20 7 C13.4 6.67 6.8 6.34 0 6 C0 4.02 0 2.04 0 0 Z " fill="#FDEBB9" transform="translate(174,128)"/>
<path d="M0 0 C2.875 -0.1875 2.875 -0.1875 6 0 C8.16926659 3.25389988 8.24080049 4.13395957 8.1953125 7.88671875 C8.18564453 9.2934082 8.18564453 9.2934082 8.17578125 10.72851562 C8.15902344 11.70498047 8.14226562 12.68144531 8.125 13.6875 C8.11597656 14.67556641 8.10695313 15.66363281 8.09765625 16.68164062 C8.0740843 19.12133765 8.04118022 21.56054697 8 24 C7.01 24.33 6.02 24.66 5 25 C5.16226074 24.42258057 5.32452148 23.84516113 5.49169922 23.25024414 C5.98199485 21.0797087 6.12908936 19.21482193 6.1328125 16.99609375 C6.13410156 16.25552734 6.13539062 15.51496094 6.13671875 14.75195312 C6.13285156 13.98818359 6.12898438 13.22441406 6.125 12.4375 C6.12886719 11.66986328 6.13273437 10.90222656 6.13671875 10.11132812 C6.130981 6.82072861 6.04747031 4.14241093 5 1 C3.35 1 1.7 1 0 1 C0 0.67 0 0.34 0 0 Z " fill="#EFBC42" transform="translate(90,34)"/>
<path d="M0 0 C1 3 1 3 0 6 C-0.07051114 8.73865287 -0.09357765 11.45027588 -0.0625 14.1875 C-0.05798828 14.93708984 -0.05347656 15.68667969 -0.04882812 16.45898438 C-0.03706354 18.30602383 -0.01912865 20.15302213 0 22 C-0.66 21.67 -1.32 21.34 -2 21 C-2 14.4 -2 7.8 -2 1 C-1.34 0.67 -0.68 0.34 0 0 Z " fill="#F5B21A" transform="translate(12,85)"/>
<path d="M0 0 C0.33 0 0.66 0 1 0 C1 7.92 1 15.84 1 24 C0.01 24.33 -0.98 24.66 -2 25 C-1.84152588 24.44280273 -1.68305176 23.88560547 -1.51977539 23.31152344 C-0.96429853 20.84122989 -0.791532 18.54446396 -0.68359375 16.015625 C-0.64169922 15.08105469 -0.59980469 14.14648438 -0.55664062 13.18359375 C-0.51732422 12.21550781 -0.47800781 11.24742188 -0.4375 10.25 C-0.39431641 9.26644531 -0.35113281 8.28289062 -0.30664062 7.26953125 C-0.20077948 4.84648725 -0.09869829 2.4233446 0 0 Z " fill="#FEE7B3" transform="translate(98,85)"/>
<path d="M0 0 C0.33 0 0.66 0 1 0 C1.05807043 3.10408807 1.09361914 6.2080364 1.125 9.3125 C1.14175781 10.19357422 1.15851563 11.07464844 1.17578125 11.98242188 C1.18222656 12.82998047 1.18867187 13.67753906 1.1953125 14.55078125 C1.20578613 15.33106689 1.21625977 16.11135254 1.22705078 16.9152832 C1 19 1 19 -1 22 C-1.66 21.67 -2.32 21.34 -3 21 C-2.68289062 20.52046875 -2.36578125 20.0409375 -2.0390625 19.546875 C-0.52584233 15.83777894 -0.53308589 12.22190798 -0.375 8.25 C-0.33632812 7.45722656 -0.29765625 6.66445312 -0.2578125 5.84765625 C-0.163892 3.89880584 -0.08087178 1.94943549 0 0 Z " fill="#EEBC43" transform="translate(97,87)"/>
</svg>
