<?xml version="1.0" encoding="UTF-8"?>
<svg version="1.1" xmlns="http://www.w3.org/2000/svg" width="410" height="410">
<path d="M0 0 C0.82132919 -0.00701431 1.64265839 -0.01402863 2.48887634 -0.02125549 C5.12154698 -0.03864922 7.75399278 -0.04510674 10.38671875 -0.046875 C11.73521912 -0.04788712 11.73521912 -0.04788712 13.11096191 -0.04891968 C26.0013166 -0.03352263 38.4637268 0.29711906 51.07421875 3.203125 C52.29214111 3.46851074 52.29214111 3.46851074 53.53466797 3.73925781 C65.35865413 6.34381858 76.80265758 9.78765843 88.07421875 14.203125 C88.7280957 14.45787598 89.38197266 14.71262695 90.05566406 14.97509766 C114.79625768 24.78644694 136.66419768 40.14029243 155.57763672 58.73730469 C156.83130806 59.96520725 158.10832099 61.16921715 159.390625 62.3671875 C165.69007319 68.34848174 170.86049755 75.28336245 176.07421875 82.203125 C176.72874023 83.06647461 176.72874023 83.06647461 177.39648438 83.94726562 C200.68603085 114.87041155 216.0535463 155.17969062 216.27734375 194.12890625 C216.28435806 194.95023544 216.29137238 195.77156464 216.29859924 196.61778259 C216.31599297 199.25045323 216.32245049 201.88289903 216.32421875 204.515625 C216.32489349 205.41462524 216.32556824 206.31362549 216.32626343 207.23986816 C216.31086638 220.13022285 215.98022469 232.59263305 213.07421875 245.203125 C212.89729492 246.01507324 212.72037109 246.82702148 212.53808594 247.66357422 C209.93352517 259.48756038 206.48968532 270.93156383 202.07421875 282.203125 C201.81946777 282.85700195 201.5647168 283.51087891 201.30224609 284.18457031 C191.49089681 308.92516393 176.13705132 330.79310393 157.54003906 349.70654297 C156.3121365 350.96021431 155.1081266 352.23722724 153.91015625 353.51953125 C147.92886201 359.81897944 140.9939813 364.9894038 134.07421875 370.203125 C133.49865234 370.63947266 132.92308594 371.07582031 132.33007812 371.52539062 C101.4069322 394.8149371 61.09765313 410.18245255 22.1484375 410.40625 C21.32710831 410.41326431 20.50577911 410.42027863 19.65956116 410.42750549 C17.02689052 410.44489922 14.39444472 410.45135674 11.76171875 410.453125 C10.86271851 410.45379974 9.96371826 410.45447449 9.03747559 410.45516968 C-3.8528791 410.43977263 -16.3152893 410.10913094 -28.92578125 407.203125 C-29.73772949 407.02620117 -30.54967773 406.84927734 -31.38623047 406.66699219 C-43.21021663 404.06243142 -54.65422008 400.61859157 -65.92578125 396.203125 C-66.5796582 395.94837402 -67.23353516 395.69362305 -67.90722656 395.43115234 C-92.64782018 385.61980306 -114.51576018 370.26595757 -133.42919922 351.66894531 C-134.68287056 350.44104275 -135.95988349 349.23703285 -137.2421875 348.0390625 C-143.54163569 342.05776826 -148.71206005 335.12288755 -153.92578125 328.203125 C-154.58030273 327.33977539 -154.58030273 327.33977539 -155.24804688 326.45898438 C-178.53759335 295.53583845 -193.9051088 255.22655938 -194.12890625 216.27734375 C-194.13592056 215.45601456 -194.14293488 214.63468536 -194.15016174 213.78846741 C-194.16755547 211.15579677 -194.17401299 208.52335097 -194.17578125 205.890625 C-194.17645599 204.99162476 -194.17713074 204.09262451 -194.17782593 203.16638184 C-194.16242888 190.27602715 -193.83178719 177.81361695 -190.92578125 165.203125 C-190.66039551 163.98520264 -190.66039551 163.98520264 -190.38964844 162.74267578 C-187.78508767 150.91868962 -184.34124782 139.47468617 -179.92578125 128.203125 C-179.67103027 127.54924805 -179.4162793 126.89537109 -179.15380859 126.22167969 C-169.34245931 101.48108607 -153.98861382 79.61314607 -135.39160156 60.69970703 C-134.163699 59.44603569 -132.9596891 58.16902276 -131.76171875 56.88671875 C-125.78042451 50.58727056 -118.8455438 45.4168462 -111.92578125 40.203125 C-111.35021484 39.76677734 -110.77464844 39.33042969 -110.18164062 38.88085938 C-79.2584947 15.5913129 -38.94921563 0.22379745 0 0 Z " fill="#FDFDFE" transform="translate(193.92578125,-0.203125)"/>
<path d="M0 0 C18.91760903 14.73758178 30.92480386 36.28720425 34.609375 59.90625 C37.23371332 83.97392477 31.81191941 107.50325002 17 127 C5.93740692 140.61388259 -7.0077338 149.95162942 -23 157 C-24.69189453 157.79664063 -24.69189453 157.79664063 -26.41796875 158.609375 C-43.11199586 165.20546118 -68.77722428 165.03272152 -85.4921875 158.54296875 C-86.64976562 158.03378906 -87.80734375 157.52460938 -89 157 C-89.6074707 156.74299316 -90.21494141 156.48598633 -90.84082031 156.22119141 C-113.09602415 146.67571298 -130.4728226 128.9736993 -139.94140625 106.79296875 C-148.34578787 84.61904677 -149.73460417 58.74967149 -140.00878906 36.75878906 C-135.77836152 27.68026825 -130.80917781 19.39317664 -124 12 C-123.19046875 11.09894531 -122.3809375 10.19789063 -121.546875 9.26953125 C-89.11907912 -25.10203602 -37.31272437 -27.37841698 0 0 Z " fill="#233C7A" transform="translate(261,130)"/>
<path d="M0 0 C4.95687495 3.84297716 9.57849064 7.78893284 13.70849609 12.52905273 C14.68302734 13.64473633 14.68302734 13.64473633 15.67724609 14.78295898 C28.12319318 29.69416097 36.53623098 46.645104 40.70849609 65.52905273 C40.97339844 66.59893433 40.97339844 66.59893433 41.24365234 67.69042969 C42.95720649 75.14056531 43.09404932 82.46924364 43.08349609 90.09155273 C43.08295227 90.75479553 43.08240845 91.41803833 43.08184814 92.10137939 C43.04162976 102.78048632 42.11687583 112.39917879 38.70849609 122.52905273 C38.49418945 123.19501465 38.27988281 123.86097656 38.05908203 124.54711914 C28.81849116 152.97505044 8.68046973 177.52305847 -18.05419922 191.19458008 C-45.9395735 204.73379963 -77.74737007 208.23107754 -107.34448242 198.27197266 C-121.86246594 193.1226729 -134.90691609 185.98874789 -146.29150391 175.52905273 C-147.01781006 174.86631348 -147.01781006 174.86631348 -147.75878906 174.19018555 C-160.40339847 162.52385892 -169.34717696 149.22861131 -176.29150391 133.52905273 C-176.58041504 132.87678711 -176.86932617 132.22452148 -177.16699219 131.55249023 C-188.34625199 105.67588655 -188.44164462 75.76774981 -178.29150391 49.52905273 C-171.93139307 34.09661681 -163.77075301 21.68006513 -152.29150391 9.52905273 C-151.59412109 8.7672168 -150.89673828 8.00538086 -150.17822266 7.22045898 C-137.83434616 -5.80041257 -121.81620172 -14.1447723 -104.97900391 -19.84594727 C-104.27493408 -20.08466553 -103.57086426 -20.32338379 -102.84545898 -20.56933594 C-67.37384701 -31.9460912 -28.9830322 -21.98446061 0 0 Z M-97.29150391 2.52905273 C-98.27763672 2.8294043 -99.26376953 3.12975586 -100.27978516 3.43920898 C-111.86587278 7.31241628 -122.21469978 13.38726013 -131.29150391 21.52905273 C-132.19771484 22.34116211 -133.10392578 23.15327148 -134.03759766 23.98999023 C-144.6300957 34.00952375 -151.99279115 45.95210789 -157.29150391 59.52905273 C-157.70529297 60.58479492 -158.11908203 61.64053711 -158.54541016 62.72827148 C-165.88566115 85.15823708 -161.79730552 110.55088114 -151.91650391 131.43530273 C-140.73670439 153.0657844 -121.32606402 169.11119099 -98.29150391 176.52905273 C-97.52217529 176.79540527 -96.75284668 177.06175781 -95.96020508 177.33618164 C-87.72454386 179.92913232 -79.64681834 180.08485118 -71.10400391 180.02905273 C-70.00392502 180.02591064 -70.00392502 180.02591064 -68.88162231 180.02270508 C-57.89398493 179.95787506 -48.36568853 179.26645534 -38.29150391 174.52905273 C-36.94514974 173.94181315 -35.59879557 173.35457357 -34.25244141 172.76733398 C-24.9632698 168.54944768 -17.03135923 163.13972237 -9.29150391 156.52905273 C-8.62892578 155.96831055 -7.96634766 155.40756836 -7.28369141 154.82983398 C4.83015275 143.64565694 13.45980159 127.32701538 17.70849609 111.52905273 C17.91216797 110.84842773 18.11583984 110.16780273 18.32568359 109.46655273 C21.91690045 95.29846432 20.2072111 79.52391276 16.70849609 65.52905273 C16.45326172 64.50811523 16.19802734 63.48717773 15.93505859 62.43530273 C10.4506286 43.71779853 -2.30225538 26.57267784 -18.29150391 15.52905273 C-19.25314453 14.85358398 -20.21478516 14.17811523 -21.20556641 13.48217773 C-43.82839362 -1.45001094 -71.54115116 -5.44720873 -97.29150391 2.52905273 Z " fill="#F48C20" transform="translate(276.29150390625,112.470947265625)"/>
<path d="M0 0 C3.66167534 1.60463379 6.24289129 4.55723368 9.109375 7.28515625 C21.83769408 18.64850813 37.61112968 26.27675057 53.6484375 31.69921875 C54.47037598 31.97725342 55.29231445 32.25528809 56.13916016 32.54174805 C68.94819002 36.67430188 81.04419003 38.38168607 94.43603516 38.27783203 C96.88891578 38.26178106 99.34013838 38.2777544 101.79296875 38.296875 C115.68798366 38.31631651 128.70861113 36.24804757 142.0234375 32.19921875 C143.27761475 31.81793823 143.27761475 31.81793823 144.55712891 31.42895508 C161.6549129 25.99791341 177.09405198 16.38610647 190.71875 4.83203125 C191.47929687 4.19007813 192.23984375 3.548125 193.0234375 2.88671875 C193.63960937 2.28601563 194.25578125 1.6853125 194.890625 1.06640625 C197.38459806 -0.31304405 199.17542551 -0.56465138 201.98095703 -0.00878906 C206.80783124 2.10751199 210.33190935 6.3026588 213.9609375 10.01171875 C214.83556641 10.85476563 215.71019531 11.6978125 216.61132812 12.56640625 C222.76117536 18.74985921 222.76117536 18.74985921 223.8984375 23.6796875 C220.52758089 36.03447892 199.05739084 46.97786789 188.640625 53.1015625 C177.80317461 59.28735214 167.01661706 64.42262953 155.0234375 67.88671875 C153.8772998 68.22026367 153.8772998 68.22026367 152.70800781 68.56054688 C147.17795494 70.14313844 141.6358528 71.62544581 136.0234375 72.88671875 C134.88825684 73.14855957 133.75307617 73.41040039 132.58349609 73.68017578 C121.61338716 75.99555138 110.96391926 76.44218063 99.7734375 76.38671875 C98.4019606 76.38507217 98.4019606 76.38507217 97.0027771 76.38339233 C75.71558336 76.31038224 54.93636412 73.8518894 35.0234375 65.88671875 C34.04632813 65.520625 33.06921875 65.15453125 32.0625 64.77734375 C18.58112316 59.50045094 5.77982714 52.30013501 -5.9765625 43.88671875 C-6.52812012 43.49387695 -7.07967773 43.10103516 -7.64794922 42.69628906 C-14.98443558 37.44382012 -14.98443558 37.44382012 -17.9765625 34.88671875 C-17.9765625 34.22671875 -17.9765625 33.56671875 -17.9765625 32.88671875 C-18.5540625 32.63921875 -19.1315625 32.39171875 -19.7265625 32.13671875 C-22.43879799 30.62992125 -24.09408174 29.37428262 -25.9765625 26.88671875 C-26.6015625 23.7890625 -26.6015625 23.7890625 -25.9765625 19.88671875 C-23.58361317 16.59356105 -20.69810276 13.90532455 -17.7265625 11.13671875 C-16.94925781 10.38261719 -16.17195313 9.62851562 -15.37109375 8.8515625 C-5.12816771 -1.00615949 -5.12816771 -1.00615949 0 0 Z " fill="#243D7B" transform="translate(106.9765625,302.11328125)"/>
<path d="M0 0 C0.86153687 0.0013797 1.72307373 0.0027594 2.61071777 0.00418091 C18.83367039 0.05196161 34.73013364 1.3823271 50.5 5.4375 C50.5 6.0975 50.5 6.7575 50.5 7.4375 C52.44132812 7.58251953 52.44132812 7.58251953 54.421875 7.73046875 C59.56174372 8.31126188 63.98272039 9.79429189 68.75 11.75 C69.60263428 12.09611328 70.45526855 12.44222656 71.33374023 12.79882812 C91.18654056 21.15332957 108.40809143 33.28850653 124.5 47.4375 C125.4590625 48.15486328 125.4590625 48.15486328 126.4375 48.88671875 C127.5 50.4375 127.5 50.4375 127.31689453 53.24023438 C125.8671339 58.91449178 121.45253753 62.24224176 117.375 66.25 C116.53195312 67.12076172 115.68890625 67.99152344 114.8203125 68.88867188 C107.808465 75.87329947 107.808465 75.87329947 103.6640625 76.75 C99.74496946 76.36292908 98.67449862 75.46907733 96 72.625 C80.77746825 57.81574966 60.73411938 48.21105922 40.5 42.4375 C39.35789063 42.10878906 38.21578125 41.78007813 37.0390625 41.44140625 C28.59122953 39.26165676 20.18354151 38.64247289 11.5 38.4375 C10.40929199 38.41026855 9.31858398 38.38303711 8.19482422 38.35498047 C-15.69731796 37.84486222 -37.97190123 40.24138581 -59.5 51.4375 C-60.51707031 51.96601562 -61.53414062 52.49453125 -62.58203125 53.0390625 C-70.92912145 57.59202079 -78.47312456 62.90889124 -86.00390625 68.703125 C-86.60992676 69.16912109 -87.21594727 69.63511719 -87.84033203 70.11523438 C-89.28318715 71.26476414 -90.66211888 72.49364513 -92.02734375 73.734375 C-95.56962246 76.17423837 -97.14305461 76.82754191 -101.5 76.4375 C-105.42425644 73.7031997 -108.63009038 70.37587256 -111.9375 66.9375 C-112.85982422 66.03773437 -113.78214844 65.13796875 -114.73242188 64.2109375 C-121.3937262 57.44608958 -121.3937262 57.44608958 -121.88476562 52.78588867 C-121.37296583 48.33199641 -119.92172741 47.1583244 -116.5625 44.25 C-116.02963379 43.78859619 -115.49676758 43.32719238 -114.94775391 42.85180664 C-82.47723924 15.37142936 -42.54821858 -0.29640124 0 0 Z " fill="#243D7C" transform="translate(202.5,25.5625)"/>
<path d="M0 0 C4.66743253 0.6121223 8.51262416 2.0391546 11.8125 5.5 C13.64952601 10.83280125 11.89288778 14.52347803 9.625 19.375 C6.01206623 27.59494021 3.61713079 35.70449442 1.8125 44.5 C1.63589844 45.29051758 1.45929688 46.08103516 1.27734375 46.89550781 C-0.35055148 54.76463706 -0.57333571 62.48058948 -0.5625 70.5 C-0.56195618 71.18153137 -0.56141235 71.86306274 -0.56085205 72.56524658 C-0.49306693 91.09552838 3.07642516 109.10747296 11.46484375 125.78515625 C13.07985138 129.03857741 13.4355105 130.91768965 12.8125 134.5 C10.625 136.6875 10.625 136.6875 7.8125 138.5 C7.008125 139.0775 6.20375 139.655 5.375 140.25 C2.07421145 141.86014075 0.42704309 142.32833279 -3.1875 141.5 C-11.35203501 132.99628549 -14.23532747 118.47073722 -17.1875 107.5 C-17.51363281 106.43394531 -17.83976562 105.36789063 -18.17578125 104.26953125 C-21.11606409 93.31442337 -21.59171842 82.83770663 -21.5625 71.5625 C-21.56162384 70.73919189 -21.56074768 69.91588379 -21.55984497 69.06762695 C-21.51563912 56.48196159 -20.86726912 44.61501044 -17.1875 32.5 C-16.91953613 31.60345703 -16.65157227 30.70691406 -16.37548828 29.78320312 C-7.66977487 1.20310194 -7.66977487 1.20310194 0 0 Z " fill="#243D7C" transform="translate(74.1875,131.5)"/>
<path d="M0 0 C3.62870018 3.89313987 5.55224615 8.00782121 7.5 12.875 C7.80260742 13.62604004 8.10521484 14.37708008 8.41699219 15.15087891 C11.22675858 22.29876801 13.37429269 29.48863013 15 37 C15.14953125 37.6815918 15.2990625 38.36318359 15.453125 39.06542969 C17.61883346 49.31987255 18.27504352 59.40159138 18.3125 69.875 C18.31797852 70.9794043 18.32345703 72.08380859 18.32910156 73.22167969 C18.26201905 80.96855347 17.35628571 88.37933346 16 96 C15.81957153 97.0820874 15.81957153 97.0820874 15.63549805 98.18603516 C13.53038588 110.61197569 9.86815467 122.4317707 4.625 133.875 C4.10164063 135.02742187 3.57828125 136.17984375 3.0390625 137.3671875 C1 140 1 140 -2.421875 141.02734375 C-6.1179006 140.99909901 -7.77217596 140.59321373 -10.875 138.6875 C-11.63554687 138.23761719 -12.39609375 137.78773438 -13.1796875 137.32421875 C-15 136 -15 136 -16 134 C-16.42597159 129.06582905 -15.33221587 125.88540173 -13.25 121.4375 C-2.11064069 96.51904508 0.53760428 67.54323454 -6 41 C-6.29003906 39.73929688 -6.58007812 38.47859375 -6.87890625 37.1796875 C-8.79264046 29.38062005 -11.39162298 22.34285171 -14.828125 15.12109375 C-16.0755463 11.79879502 -16.39177739 9.51595091 -16 6 C-11.81723451 1.694212 -6.02935206 -2.53867455 0 0 Z " fill="#263E7C" transform="translate(340,132)"/>
<path d="M0 0 C0.33 0 0.66 0 1 0 C2.25464295 6.27321475 2.25464295 6.27321475 1.04931641 9.71337891 C-0.2098559 13.65730109 -0.35148669 17.36284917 -0.4140625 21.4609375 C-0.43342865 22.25150543 -0.4527948 23.04207336 -0.4727478 23.8565979 C-0.53216053 26.36262483 -0.57877427 28.86869865 -0.625 31.375 C-0.66321513 33.08205043 -0.70226889 34.78908231 -0.7421875 36.49609375 C-0.83783011 40.66391044 -0.92200115 44.8318173 -1 49 C-1.33 49 -1.66 49 -2 49 C-2.0499887 43.95037222 -2.08599384 38.90089315 -2.10986328 33.85107422 C-2.11982955 32.13848354 -2.13340747 30.42590946 -2.15087891 28.71337891 C-2.24798286 18.94015144 -2.13419273 9.60025818 0 0 Z " fill="#6476A1" transform="translate(55,172)"/>
<path d="M0 0 C0.33 0 0.66 0 1 0 C2.02686292 5.1343146 1.82361166 8.13703556 0 13 C-0.37531446 15.32694964 -0.71917202 17.65976685 -1 20 C-1.33 20 -1.66 20 -2 20 C-2.26404456 13.13484138 -1.25841946 6.74153283 0 0 Z " fill="#7B8AAF" transform="translate(55,172)"/>
<path d="M0 0 C-2.6855594 2.6855594 -5.37621328 3.06049974 -9 4 C-8.67 3.01 -8.34 2.02 -8 1 C-5.07175348 0.02391783 -3.04386724 -0.08226668 0 0 Z " fill="#4F6395" transform="translate(281,362)"/>
</svg>
